<svg width="16" height="16" viewBox="0 0 16 16" fill="none" xmlns="http://www.w3.org/2000/svg">
<path d="M5.88005 2.51085C3.38821 2.25782 2.64769 6.51527 2.64769 6.51527C2.64769 6.51527 -0.165092 6.65351 0.00764207 7.59721C0.0634853 7.90231 0.481141 8.2266 1.13986 8.5258C1.17727 8.51228 1.21434 8.5009 1.24934 8.49116C1.36533 8.45888 1.50411 8.43232 1.65439 8.41005C1.95771 8.3651 2.35637 8.33064 2.81685 8.31174C3.73944 8.27385 4.94562 8.297 6.19688 8.43705C6.41088 8.46093 6.5527 8.49113 6.69051 8.5205C6.95935 8.57779 7.21378 8.63201 7.96322 8.63043C8.68236 8.62891 8.9461 8.57806 9.20372 8.52232L9.23748 8.515C9.37482 8.48514 9.51612 8.45444 9.72893 8.42963C10.9805 8.28405 12.187 8.2557 13.1098 8.28964C13.5704 8.30658 13.9692 8.33934 14.2726 8.383C14.423 8.40464 14.5618 8.43061 14.6779 8.46241C14.7356 8.47821 14.7989 8.49846 14.8602 8.52533C14.8837 8.53567 14.9189 8.55194 14.9589 8.57621C15.7176 8.20825 16.0424 7.79432 15.9956 7.41306C15.8719 6.40048 13.7261 6.58463 13.7261 6.58463C13.7261 6.58463 13.5038 5.64092 13.0591 4.65177C12.3633 3.10061 11.2092 2.3267 10.1483 2.55724C8.82887 2.84373 8.08673 2.75885 6.7993 2.61161C6.52194 2.57989 6.21926 2.54527 5.88005 2.51085Z" fill="url(#paint0_linear_53_120)"/>
<path d="M1.23169 9.74482C1.32823 9.84492 1.80973 10.1452 1.90625 10.4464C2.00318 10.7471 2.19959 12.673 2.77782 13.1741C3.37414 13.6899 5.61939 13.4925 6.0489 13.2679C7.01016 12.7644 7.12506 11.1442 7.29389 10.4346C7.38906 10.0327 7.96632 10.0315 7.96632 10.0315C7.96632 10.0315 8.54359 10.0303 8.6407 10.4313C8.81228 11.1406 8.93425 12.7649 9.89665 13.2636C10.3274 13.4872 12.5734 13.6751 13.1685 13.1568C13.744 12.6532 13.9326 10.7215 14.0283 10.4199C14.1233 10.1188 14.6044 9.81648 14.7002 9.71597C14.7967 9.61546 14.796 9.21383 14.699 9.11331C14.5064 8.91311 12.2359 8.73912 9.79211 9.02337C9.30448 9.08021 9.1193 9.2254 7.96437 9.22783C6.81025 9.23027 6.6237 9.08545 6.13625 9.03109C3.69299 8.75758 1.42283 8.94115 1.23053 9.14216C1.13478 9.24267 1.13555 9.64472 1.23169 9.74482Z" fill="url(#paint1_linear_53_120)"/>
<defs>
<linearGradient id="paint0_linear_53_120" x1="8" y1="2.5" x2="8" y2="13.5" gradientUnits="userSpaceOnUse">
<stop stop-color="#D15500"/>
<stop offset="1" stop-color="#FF8000"/>
</linearGradient>
<linearGradient id="paint1_linear_53_120" x1="8" y1="2.5" x2="8" y2="13.5" gradientUnits="userSpaceOnUse">
<stop stop-color="#D15500"/>
<stop offset="1" stop-color="#FF8000"/>
</linearGradient>
</defs>
</svg>
