<svg width="16" height="16" viewBox="0 0 16 16" fill="none" xmlns="http://www.w3.org/2000/svg">
<path fill-rule="evenodd" clip-rule="evenodd" d="M0.5 5.5C0.5 4.67157 1.17157 4 2 4H3C3.82843 4 4.5 4.67157 4.5 5.5V6.5C4.5 7.32843 3.82843 8 3 8H1.5V11H0.5V5.5ZM1.5 7H3C3.27614 7 3.5 6.77614 3.5 6.5V5.5C3.5 5.22386 3.27614 5 3 5H2C1.72386 5 1.5 5.22386 1.5 5.5V7ZM6.5 5C6.22386 5 6 5.22386 6 5.5V8H5V5.5C5 4.67157 5.67157 4 6.5 4H8.5C9.32843 4 10 4.67157 10 5.5V8H9V5.5C9 5.22386 8.77614 5 8.5 5H8V8H7V5H6.5ZM11.5 4V6.5C11.5 6.77614 11.7239 7 12 7H12.5V4H13.5V7H14C14.2761 7 14.5 6.77614 14.5 6.5V4H15.5V6.5C15.5 7.32843 14.8284 8 14 8H12C11.1716 8 10.5 7.32843 10.5 6.5V4H11.5Z" fill="#CDE1F0"/>
<path fill-rule="evenodd" clip-rule="evenodd" d="M2.11154 9.68084C2.20028 9.76008 2.63417 9.98904 2.73171 10.2363C2.82957 10.4832 3.08555 12.0839 3.61277 12.4763C4.15643 12.8801 6.10968 12.6123 6.47515 12.4049C7.29305 11.94 7.32247 10.5806 7.43892 9.97973C7.50447 9.63951 8.00883 9.61205 8.00883 9.61205C8.00883 9.61205 8.51319 9.5846 8.61562 9.91532C8.79661 10.5003 8.97433 11.8524 9.83712 12.2251C10.2233 12.3923 12.1941 12.4464 12.6914 11.986C13.1722 11.5387 13.2524 9.91551 13.3228 9.6591C13.3926 9.40307 13.7998 9.12834 13.8791 9.03995C13.959 8.95152 13.9408 8.61587 13.8517 8.53629C13.6745 8.37778 11.683 8.33633 9.56005 8.68582C9.13644 8.75566 8.98099 8.88549 7.97192 8.94041C6.96355 8.9953 6.79421 8.88281 6.36589 8.85969C4.21899 8.74297 2.24335 9.00036 2.08413 9.17718C2.00486 9.26557 2.02315 9.60157 2.11154 9.68084Z" fill="url(#paint0_linear_53_120)"/>
<path fill-rule="evenodd" clip-rule="evenodd" d="M2.11154 9.68084C2.20028 9.76008 2.63417 9.98904 2.73171 10.2363C2.82957 10.4832 3.08555 12.0839 3.61277 12.4763C4.15643 12.8801 6.10968 12.6123 6.47515 12.4049C7.29305 11.94 7.32247 10.5806 7.43892 9.97973C7.50447 9.63951 8.00883 9.61205 8.00883 9.61205C8.00883 9.61205 8.51319 9.5846 8.61562 9.91532C8.79661 10.5003 8.97433 11.8524 9.83712 12.2251C10.2233 12.3923 12.1941 12.4464 12.6914 11.986C13.1722 11.5387 13.2524 9.91551 13.3228 9.6591C13.3926 9.40307 13.7998 9.12834 13.8791 9.03995C13.959 8.95152 13.9408 8.61587 13.8517 8.53629C13.6745 8.37778 11.683 8.33633 9.56005 8.68582C9.13644 8.75566 8.98099 8.88549 7.97192 8.94041C6.96355 8.9953 6.79421 8.88281 6.36589 8.85969C4.21899 8.74297 2.24335 9.00036 2.08413 9.17718C2.00486 9.26557 2.02315 9.60157 2.11154 9.68084Z" fill="url(#paint1_linear_53_120)"/>
<defs>
<linearGradient id="paint0_linear_53_120" x1="7.93026" y1="8.51883" x2="8.28782" y2="12.6057" gradientUnits="userSpaceOnUse">
<stop stop-color="#D15500"/>
<stop offset="1" stop-color="#E26600"/>
</linearGradient>
<linearGradient id="paint1_linear_53_120" x1="7.93026" y1="8.51883" x2="8.28782" y2="12.6057" gradientUnits="userSpaceOnUse">
<stop stop-color="#D15500"/>
<stop offset="1" stop-color="#E26600"/>
</linearGradient>
</defs>
</svg>
