<svg width="16" height="16" viewBox="0 0 16 16" fill="none" xmlns="http://www.w3.org/2000/svg">
<path fill-rule="evenodd" clip-rule="evenodd" d="M2.07773 9.06364C2.1622 9.14742 2.58351 9.39877 2.66797 9.6508C2.75278 9.90248 2.92464 11.5144 3.43059 11.9338C3.95238 12.3655 5.91697 12.2003 6.29278 12.0124C7.13389 11.5909 7.23442 10.2349 7.38216 9.64093C7.46543 9.30461 7.97053 9.30359 7.97053 9.30359C7.97053 9.30359 8.47564 9.30257 8.56062 9.6382C8.71075 10.2319 8.81746 11.5914 9.65957 12.0087C10.0365 12.1959 12.0017 12.3531 12.5225 11.9193C13.026 11.4979 13.191 9.88105 13.2748 9.62868C13.3579 9.37666 13.7789 9.12361 13.8627 9.03949C13.9472 8.95537 13.9465 8.61922 13.8617 8.53509C13.6931 8.36753 11.7064 8.22191 9.5681 8.45981C9.14142 8.50739 8.97938 8.6289 7.96882 8.63094C6.95897 8.63298 6.79574 8.51177 6.36922 8.46627C4.23137 8.23735 2.24497 8.391 2.07671 8.55924C1.99293 8.64336 1.99361 8.97986 2.07773 9.06364Z" fill="url(#paint0_linear_53_120)"/>
<path fill-rule="evenodd" clip-rule="evenodd" d="M2.07773 9.06364C2.1622 9.14742 2.58351 9.39877 2.66797 9.6508C2.75278 9.90248 2.92464 11.5144 3.43059 11.9338C3.95238 12.3655 5.91697 12.2003 6.29278 12.0124C7.13389 11.5909 7.23442 10.2349 7.38216 9.64093C7.46543 9.30461 7.97053 9.30359 7.97053 9.30359C7.97053 9.30359 8.47564 9.30257 8.56062 9.6382C8.71075 10.2319 8.81746 11.5914 9.65957 12.0087C10.0365 12.1959 12.0017 12.3531 12.5225 11.9193C13.026 11.4979 13.191 9.88105 13.2748 9.62868C13.3579 9.37666 13.7789 9.12361 13.8627 9.03949C13.9472 8.95537 13.9465 8.61922 13.8617 8.53509C13.6931 8.36753 11.7064 8.22191 9.5681 8.45981C9.14142 8.50739 8.97938 8.6289 7.96882 8.63094C6.95897 8.63298 6.79574 8.51177 6.36922 8.46627C4.23137 8.23735 2.24497 8.391 2.07671 8.55924C1.99293 8.64336 1.99361 8.97986 2.07773 9.06364Z" fill="url(#paint1_linear_53_120)"/>
<path fill-rule="evenodd" clip-rule="evenodd" d="M2.07773 9.06364C2.1622 9.14742 2.58351 9.39877 2.66797 9.6508C2.75278 9.90248 2.92464 11.5144 3.43059 11.9338C3.95238 12.3655 5.91697 12.2003 6.29278 12.0124C7.13389 11.5909 7.23442 10.2349 7.38216 9.64093C7.46543 9.30461 7.97053 9.30359 7.97053 9.30359C7.97053 9.30359 8.47564 9.30257 8.56062 9.6382C8.71075 10.2319 8.81746 11.5914 9.65957 12.0087C10.0365 12.1959 12.0017 12.3531 12.5225 11.9193C13.026 11.4979 13.191 9.88105 13.2748 9.62868C13.3579 9.37666 13.7789 9.12361 13.8627 9.03949C13.9472 8.95537 13.9465 8.61922 13.8617 8.53509C13.6931 8.36753 11.7064 8.22191 9.5681 8.45981C9.14142 8.50739 8.97938 8.6289 7.96882 8.63094C6.95897 8.63298 6.79574 8.51177 6.36922 8.46627C4.23137 8.23735 2.24497 8.391 2.07671 8.55924C1.99293 8.64336 1.99361 8.97986 2.07773 9.06364Z" fill="url(#paint2_linear_53_120)"/>
<path fill-rule="evenodd" clip-rule="evenodd" d="M2.07773 9.06364C2.1622 9.14742 2.58351 9.39877 2.66797 9.6508C2.75278 9.90248 2.92464 11.5144 3.43059 11.9338C3.95238 12.3655 5.91697 12.2003 6.29278 12.0124C7.13389 11.5909 7.23442 10.2349 7.38216 9.64093C7.46543 9.30461 7.97053 9.30359 7.97053 9.30359C7.97053 9.30359 8.47564 9.30257 8.56062 9.6382C8.71075 10.2319 8.81746 11.5914 9.65957 12.0087C10.0365 12.1959 12.0017 12.3531 12.5225 11.9193C13.026 11.4979 13.191 9.88105 13.2748 9.62868C13.3579 9.37666 13.7789 9.12361 13.8627 9.03949C13.9472 8.95537 13.9465 8.61922 13.8617 8.53509C13.6931 8.36753 11.7064 8.22191 9.5681 8.45981C9.14142 8.50739 8.97938 8.6289 7.96882 8.63094C6.95897 8.63298 6.79574 8.51177 6.36922 8.46627C4.23137 8.23735 2.24497 8.391 2.07671 8.55924C1.99293 8.64336 1.99361 8.97986 2.07773 9.06364Z" fill="url(#paint3_linear_53_120)"/>
<path fill-rule="evenodd" clip-rule="evenodd" d="M6.14504 3.00908C3.96468 2.7973 3.31673 6.36063 3.31673 6.36063C3.31673 6.36063 0.855545 6.47633 1.00669 7.26618C1.05555 7.52153 1.421 7.79294 1.99738 8.04337C2.03011 8.03205 2.06255 8.02252 2.09317 8.01437C2.19466 7.98736 2.31609 7.96513 2.44759 7.94649C2.71299 7.90887 3.06183 7.88003 3.46475 7.8642C4.27201 7.8325 5.32742 7.85187 6.42227 7.96909C6.60952 7.98908 6.73361 8.01435 6.8542 8.03893C7.08943 8.08688 7.31206 8.13226 7.96782 8.13094C8.59706 8.12967 8.82784 8.0871 9.05325 8.04046L9.08279 8.03433C9.20296 8.00934 9.32661 7.98364 9.51281 7.96287C10.6079 7.84103 11.6636 7.81731 12.4711 7.84571C12.8741 7.85989 13.223 7.88731 13.4885 7.92385C13.6201 7.94196 13.7416 7.9637 13.8432 7.99031C13.8936 8.00353 13.949 8.02048 14.0026 8.04298C14.0233 8.05163 14.054 8.06525 14.0891 8.08556C14.7529 7.77759 15.0371 7.43114 14.9961 7.11205C14.8879 6.26455 13.0103 6.41868 13.0103 6.41868C13.0103 6.41868 12.8158 5.62883 12.4267 4.80095C11.8179 3.50268 10.808 2.85495 9.87973 3.04791C8.72526 3.28769 8.07589 3.21665 6.94939 3.09341C6.70669 3.06686 6.44185 3.03789 6.14504 3.00908Z" fill="#CDE1F0"/>
<defs>
<linearGradient id="paint0_linear_53_120" x1="7.94929" y1="8.20775" x2="8.09246" y2="12.3077" gradientUnits="userSpaceOnUse">
<stop stop-color="#D15500"/>
<stop offset="1" stop-color="#E26600"/>
</linearGradient>
<linearGradient id="paint1_linear_53_120" x1="7.94929" y1="8.20775" x2="8.09246" y2="12.3077" gradientUnits="userSpaceOnUse">
<stop stop-color="#D15500"/>
<stop offset="1" stop-color="#E26600"/>
</linearGradient>
<linearGradient id="paint2_linear_53_120" x1="7.94929" y1="8.20775" x2="8.09246" y2="12.3077" gradientUnits="userSpaceOnUse">
<stop stop-color="#D15500"/>
<stop offset="1" stop-color="#E26600"/>
</linearGradient>
<linearGradient id="paint3_linear_53_120" x1="7.94929" y1="8.20775" x2="8.09246" y2="12.3077" gradientUnits="userSpaceOnUse">
<stop stop-color="#D15500"/>
<stop offset="1" stop-color="#E26600"/>
</linearGradient>
</defs>
</svg>
