<svg width="51" height="12" viewBox="0 0 51 12" fill="none" xmlns="http://www.w3.org/2000/svg">
<g clip-path="url(#clip0_52_71)">
<path fill-rule="evenodd" clip-rule="evenodd" d="M18 6V0.5H17V3.5H15.5C14.6716 3.5 14 4.17157 14 5V6C14 6.82843 14.6716 7.5 15.5 7.5H16.5C17.3284 7.5 18 6.82843 18 6ZM15.5 4.5H17V6C17 6.27614 16.7761 6.5 16.5 6.5H15.5C15.2239 6.5 15 6.27614 15 6V5C15 4.72386 15.2239 4.5 15.5 4.5ZM20.5 3.5C20.5 3.22386 20.2761 3 20 3C19.7239 3 19.5 3.22386 19.5 3.5V4.5C19.5 4.77614 19.7239 5 20 5C20.2761 5 20.5 4.77614 20.5 4.5V3.5ZM11.3162 6.36754L10.3162 3.36754L9.36754 3.68377L10.3675 6.68377C10.53 7.17122 10.9862 7.5 11.5 7.5C12.0138 7.5 12.47 7.17122 12.6325 6.68377L13.6325 3.68377L12.6838 3.36754L11.6838 6.36754C11.6574 6.44665 11.5834 6.5 11.5 6.5C11.4166 6.5 11.3426 6.44665 11.3162 6.36754ZM2 3.5C1.17157 3.5 0.5 4.17157 0.5 5V10.5H1.5V7.5H3C3.82843 7.5 4.5 6.82843 4.5 6V5C4.5 4.17157 3.82843 3.5 3 3.5H2ZM3 6.5H1.5V5C1.5 4.72386 1.72386 4.5 2 4.5H3C3.27614 4.5 3.5 4.72386 3.5 5V6C3.5 6.27614 3.27614 6.5 3 6.5ZM6 5C6 4.72386 6.22386 4.5 6.5 4.5H7.5C7.77614 4.5 8 4.72386 8 5V5.5H9V5C9 4.17157 8.32843 3.5 7.5 3.5H6.5C5.67157 3.5 5 4.17157 5 5V7.5H6V5ZM22 5C22 4.72386 22.2239 4.5 22.5 4.5H23V7.5H24V4.5H24.5C24.7761 4.5 25 4.72386 25 5V7.5H26V5C26 4.17157 25.3284 3.5 24.5 3.5H22.5C21.6716 3.5 21 4.17157 21 5V7.5H22V5ZM28.5 6V3.5H27.5V6C27.5 6.82843 28.1716 7.5 29 7.5H31C31.8284 7.5 32.5 6.82843 32.5 6V3.5H31.5V6C31.5 6.27614 31.2761 6.5 31 6.5H30.5V3.5H29.5V6.5H29C28.7239 6.5 28.5 6.27614 28.5 6ZM34 5C34 4.72386 34.2239 4.5 34.5 4.5H35.5C35.7761 4.5 36 4.72386 36 5V5.5H37V5C37 4.17157 36.3284 3.5 35.5 3.5H34.5C33.6716 3.5 33 4.17157 33 5V7.5H34V5ZM38.5 5C38.5 4.72386 38.7239 4.5 39 4.5H40C40.2761 4.5 40.5 4.72386 40.5 5V6C40.5 6.27614 40.2761 6.5 40 6.5H39C38.7239 6.5 38.5 6.27614 38.5 6V5ZM39 3.5C38.1716 3.5 37.5 4.17157 37.5 5V6C37.5 6.59372 37.8449 7.10688 38.3454 7.34999C38.97 7.32317 39.6719 7.32122 40.3928 7.36041C40.47 7.36458 40.5366 7.3702 40.5967 7.37663C41.1282 7.14592 41.5 6.61638 41.5 6V5C41.5 4.17157 40.8284 3.5 40 3.5H39ZM43 7.30024C42.7911 7.35451 42.565 7.40495 42 7.43803V5C42 4.17157 42.6716 3.5 43.5 3.5H44.5C45.3284 3.5 46 4.17157 46 5V6.93331C45.6895 6.94621 45.3531 6.96786 45 6.99976V5C45 4.72386 44.7761 4.5 44.5 4.5H43.5C43.2239 4.5 43 4.72386 43 5V7.30024ZM48.3859 7.5C48.3854 7.49821 48.3849 7.49641 48.3843 7.49462C48.3636 7.42418 48.313 7.27811 48.1851 7.16369C48.1018 7.08914 48.0111 7.05344 47.9667 7.03747C47.912 7.01781 47.8558 7.00379 47.8047 6.99322C47.7019 6.97196 47.5794 6.95661 47.4471 6.94542C47.2698 6.93041 47.056 6.92135 46.8144 6.91898C46.6173 6.66511 46.5 6.34626 46.5 6V5C46.5 4.17157 47.1716 3.5 48 3.5H49C49.8284 3.5 50.5 4.17157 50.5 5V9C50.5 9.82843 49.8284 10.5 49 10.5H48.5V9.5H49C49.2761 9.5 49.5 9.27614 49.5 9V7.5H48.3859ZM47.5 5C47.5 4.72386 47.7239 4.5 48 4.5H49C49.2761 4.5 49.5 4.72386 49.5 5V6.5H48C47.7239 6.5 47.5 6.27614 47.5 6V5Z" fill="#BAE7F5"/>
<path fill-rule="evenodd" clip-rule="evenodd" d="M36.1115 8.68084C36.2003 8.76008 36.6342 8.98904 36.7317 9.2363C36.8296 9.4832 37.0856 11.0839 37.6128 11.4763C38.1564 11.8801 40.1097 11.6123 40.4751 11.4049C41.293 10.94 41.3225 9.58056 41.4389 8.97973C41.5045 8.63951 42.0088 8.61205 42.0088 8.61205C42.0088 8.61205 42.5132 8.5846 42.6156 8.91532C42.7966 9.50032 42.9743 10.8524 43.8371 11.2251C44.2233 11.3923 46.1941 11.4464 46.6914 10.986C47.1722 10.5387 47.2524 8.91551 47.3228 8.6591C47.3926 8.40307 47.7998 8.12834 47.8791 8.03995C47.959 7.95152 47.9408 7.61587 47.8517 7.53629C47.6745 7.37778 45.683 7.33633 43.56 7.68582C43.1364 7.75566 42.981 7.88549 41.9719 7.94041C40.9636 7.9953 40.7942 7.88281 40.3659 7.85969C38.219 7.74297 36.2434 8.00036 36.0841 8.17718C36.0049 8.26557 36.0232 8.60157 36.1115 8.68084Z" fill="url(#paint0_linear_52_71)"/>
<path fill-rule="evenodd" clip-rule="evenodd" d="M36.1115 8.68084C36.2003 8.76008 36.6342 8.98904 36.7317 9.2363C36.8296 9.4832 37.0856 11.0839 37.6128 11.4763C38.1564 11.8801 40.1097 11.6123 40.4751 11.4049C41.293 10.94 41.3225 9.58056 41.4389 8.97973C41.5045 8.63951 42.0088 8.61205 42.0088 8.61205C42.0088 8.61205 42.5132 8.5846 42.6156 8.91532C42.7966 9.50032 42.9743 10.8524 43.8371 11.2251C44.2233 11.3923 46.1941 11.4464 46.6914 10.986C47.1722 10.5387 47.2524 8.91551 47.3228 8.6591C47.3926 8.40307 47.7998 8.12834 47.8791 8.03995C47.959 7.95152 47.9408 7.61587 47.8517 7.53629C47.6745 7.37778 45.683 7.33633 43.56 7.68582C43.1364 7.75566 42.981 7.88549 41.9719 7.94041C40.9636 7.9953 40.7942 7.88281 40.3659 7.85969C38.219 7.74297 36.2434 8.00036 36.0841 8.17718C36.0049 8.26557 36.0232 8.60157 36.1115 8.68084Z" fill="url(#paint1_linear_52_71)"/>
</g>
<defs>
<linearGradient id="paint0_linear_52_71" x1="41.9303" y1="7.51883" x2="42.2878" y2="11.6057" gradientUnits="userSpaceOnUse">
<stop stop-color="#D15500"/>
<stop offset="1" stop-color="#E26600"/>
</linearGradient>
<linearGradient id="paint1_linear_52_71" x1="41.9303" y1="7.51883" x2="42.2878" y2="11.6057" gradientUnits="userSpaceOnUse">
<stop stop-color="#D15500"/>
<stop offset="1" stop-color="#E26600"/>
</linearGradient>
<clipPath id="clip0_52_71">
<rect width="51" height="12" fill="white"/>
</clipPath>
</defs>
</svg>
