<svg width="16" height="16" viewBox="0 0 16 16" fill="none" xmlns="http://www.w3.org/2000/svg">
<rect width="16" height="16" fill="none"/>
<mask id="path-1-inside-1_43_2" fill="white">
<path fill-rule="evenodd" clip-rule="evenodd" d="M2.72102 7.90701C1.89629 7.6321 1 8.13066 1 9V9C1 12.866 4.13401 16 8 16C11.866 16 15 12.866 15 9C15 6.17427 13.3257 3.7396 10.915 2.63395C10.3875 2.39202 10 1.89202 10 1.3117V1.3117C10 0.587268 9.41273 0 8.6883 0H8C6.89543 0 6 0.89543 6 2V5C6 6.10457 6.89543 7 8 7V7C9.10457 7 10 7.89543 10 9C10 10.1046 9.10457 11 8 11C7.4012 11 6.86386 10.7368 6.49733 10.3199C5.92897 9.67331 5.44914 8.81638 4.63245 8.54415L2.72102 7.90701Z"/>
</mask>
<path d="M4.63245 8.54415L5.1068 7.12113L4.63245 8.54415ZM2.72102 7.90701L2.24668 9.33003L2.72102 7.90701ZM-0.5 9C-0.5 13.6944 3.30558 17.5 8 17.5V14.5C4.96243 14.5 2.5 12.0376 2.5 9H-0.5ZM8 17.5C12.6944 17.5 16.5 13.6944 16.5 9H13.5C13.5 12.0376 11.0376 14.5 8 14.5V17.5ZM16.5 9C16.5 5.56646 14.4642 2.61155 11.5403 1.27051L10.2897 3.99738C12.1871 4.86764 13.5 6.78208 13.5 9H16.5ZM8.6883 -1.5H8V1.5H8.6883V-1.5ZM4.5 2V5H7.5V2H4.5ZM11.5 9C11.5 7.067 9.933 5.5 8 5.5V8.5C8.27614 8.5 8.5 8.72386 8.5 9H11.5ZM8 12.5C9.933 12.5 11.5 10.933 11.5 9H8.5C8.5 9.27614 8.27614 9.5 8 9.5V12.5ZM5.37073 11.3102C6.00996 12.0374 6.95187 12.5 8 12.5V9.5C7.85053 9.5 7.71777 9.4363 7.62393 9.32954L5.37073 11.3102ZM5.1068 7.12113L3.19536 6.48398L2.24668 9.33003L4.15811 9.96718L5.1068 7.12113ZM4.5 5C4.5 6.933 6.06701 8.5 8 8.5V5.5C7.72386 5.5 7.5 5.27614 7.5 5H4.5ZM8 -1.5C6.067 -1.5 4.5 0.0670041 4.5 2H7.5C7.5 1.72386 7.72386 1.5 8 1.5V-1.5ZM11.5403 1.27051C11.5226 1.2624 11.5078 1.25279 11.4965 1.24363C11.4852 1.23445 11.4804 1.22805 11.48 1.22747C11.4798 1.22712 11.4849 1.23426 11.4902 1.25009C11.4959 1.26675 11.5 1.28827 11.5 1.3117H8.5C8.5 2.59293 9.34177 3.56264 10.2897 3.99738L11.5403 1.27051ZM11.5 1.3117C11.5 -0.241159 10.2412 -1.5 8.6883 -1.5V1.5C8.5843 1.5 8.5 1.4157 8.5 1.3117H11.5ZM7.62393 9.32954C7.51501 9.20563 7.40571 9.06634 7.26125 8.88217C7.12699 8.71101 6.96054 8.49879 6.77816 8.29401C6.41838 7.89004 5.88218 7.37959 5.1068 7.12113L4.15811 9.96718C4.19942 9.98094 4.31147 10.0351 4.53786 10.2893C4.64857 10.4136 4.75969 10.5538 4.90077 10.7337C5.03166 10.9006 5.19547 11.1108 5.37073 11.3102L7.62393 9.32954ZM2.5 9C2.5 9.04795 2.4856 9.11676 2.44572 9.18453C2.40823 9.24824 2.36306 9.28631 2.33059 9.30605C2.29917 9.32516 2.27631 9.32969 2.26571 9.33083C2.25372 9.33213 2.24736 9.33026 2.24668 9.33003L3.19536 6.48398C1.6599 5.97216 -0.5 6.84722 -0.5 9H2.5Z" fill="currentcolor" mask="url(#path-1-inside-1_43_2)"/>
</svg>
