<svg width="24" height="24" viewBox="0 0 24 24" fill="none" xmlns="http://www.w3.org/2000/svg">
<g clip-path="url(#clip0_40_154)">
<path fill-rule="evenodd" clip-rule="evenodd" d="M4.49103 1.93413C4.77213 0.865931 5.86596 0.227863 6.93416 0.508968L22.0659 4.491C23.1341 4.7721 23.7721 5.86593 23.491 6.93413L19.509 22.0658C19.2279 23.134 18.1341 23.7721 17.0659 23.491L1.93416 19.509C0.865961 19.2279 0.227893 18.134 0.508999 17.0658L4.49103 1.93413ZM9.41217 8.96707C9.55273 8.43297 10.0996 8.11394 10.6337 8.25449L15.0329 9.41217C15.567 9.55273 15.8861 10.0996 15.7455 10.6337L14.5878 15.0329C14.4473 15.567 13.9004 15.8861 13.3663 15.7455L8.96707 14.5878C8.43297 14.4473 8.11394 13.9004 8.25449 13.3663L9.41217 8.96707Z" fill="currentcolor"/>
</g>
<defs>
<clipPath id="clip0_40_154">
<rect width="24" height="24" fill="currentcolor"/>
</clipPath>
</defs>
</svg>
