<svg width="24" height="24" viewBox="0 0 24 24" fill="none" xmlns="http://www.w3.org/2000/svg">
  <g clip-path="url(#clip0_1_9)">
    <path
      d="M4.81298 0.965924C4.95592 0.432458 5.50426 0.115877 6.03772 0.258819L23.0341 4.81298C23.5675 4.95592 23.8841 5.50426 23.7412 6.03772L19.187 23.0341C19.0441 23.5675 18.4957 23.8841 17.9623 23.7412L0.965924 19.187C0.432458 19.0441 0.115877 18.4957 0.258819 17.9623L4.81298 0.965924Z"
      fill="url(#paint0_linear_1_9)" />
    <path
      d="M4.56581 18.7104C4.11247 18.589 3.74151 18.3764 3.45295 18.0727C3.16954 17.7703 2.98241 17.3972 2.89156 16.9532C2.80585 16.5106 2.83685 16.0137 2.98455 15.4625C3.13087 14.9164 3.3511 14.4757 3.64524 14.1404C3.94453 13.8065 4.29109 13.5847 4.68493 13.4749C5.0853 13.3613 5.51216 13.3652 5.9655 13.4867C6.41884 13.6082 6.79048 13.8182 7.08043 14.1167C7.37175 14.4101 7.56095 14.7755 7.64803 15.213C7.73512 15.6504 7.7055 16.1422 7.55918 16.6883C7.41148 17.2395 7.18987 17.6853 6.89435 18.0258C6.59884 18.3662 6.2502 18.5958 5.84845 18.7145C5.4467 18.8333 5.01915 18.8319 4.56581 18.7104ZM4.82877 17.729C5.06059 17.7912 5.27687 17.7773 5.47761 17.6876C5.68488 17.594 5.86544 17.4353 6.01927 17.2115C6.17826 16.9891 6.30262 16.7105 6.39234 16.3756C6.48206 16.0408 6.51231 15.7424 6.48308 15.4806C6.46038 15.215 6.38059 14.9976 6.24372 14.8284C6.11337 14.6555 5.93229 14.5379 5.70047 14.4758C5.4738 14.4151 5.25821 14.4263 5.0537 14.5096C4.85056 14.5876 4.6702 14.7353 4.51259 14.9526C4.36151 15.1661 4.24112 15.4403 4.15139 15.7752C4.06167 16.11 4.02747 16.4128 4.04879 16.6835C4.07526 16.9557 4.15486 17.1841 4.28759 17.3687C4.4217 17.5482 4.6021 17.6683 4.82877 17.729ZM7.8253 19.4844L9.1753 14.4461L10.4426 14.7857L10.6458 17.242C10.6573 17.4052 10.6629 17.5696 10.6627 17.7352C10.669 17.897 10.6733 18.0666 10.6755 18.2438L10.7064 18.2521C10.7969 18.0997 10.8828 17.9543 10.9641 17.8159C11.0467 17.6724 11.1338 17.5329 11.2253 17.3973L12.614 15.3675L13.8813 15.7071L12.5313 20.7454L11.4881 20.4659L11.983 18.619C12.0271 18.4542 12.0866 18.263 12.1614 18.0457C12.2428 17.8245 12.3234 17.6059 12.4034 17.3899C12.4899 17.1702 12.5655 16.9806 12.6303 16.8213L12.5994 16.813L11.8337 18.0324L10.6072 19.766L9.94265 19.588L9.75502 17.4754L9.71706 16.0407L9.68615 16.0324C9.66258 16.2028 9.63074 16.4041 9.59061 16.6363C9.55701 16.8647 9.51757 17.0943 9.47229 17.3251C9.42839 17.5508 9.38435 17.746 9.34018 17.9109L8.84532 19.7577L7.8253 19.4844ZM13.7114 21.0616L15.0614 16.0233L16.7923 16.4871C17.1633 16.5865 17.4843 16.7278 17.7555 16.9109C18.0332 17.0902 18.2305 17.3225 18.3473 17.6078C18.4641 17.8931 18.468 18.2392 18.3589 18.6462C18.254 19.0377 18.0776 19.3355 17.8297 19.5396C17.5817 19.7437 17.2918 19.8676 16.9599 19.9112C16.6293 19.9496 16.2863 19.9212 15.9308 19.8259L15.3049 19.6582L14.8473 21.366L13.7114 21.0616ZM15.5472 18.7541L16.1036 18.9032C16.4178 18.9874 16.6683 18.98 16.8549 18.8809C17.0467 18.7832 17.1772 18.6056 17.2462 18.348C17.318 18.0801 17.2852 17.8726 17.148 17.7254C17.0121 17.573 16.7896 17.4554 16.4805 17.3726L15.9551 17.2318L15.5472 18.7541Z"
      fill="white" />
    <path fill-rule="evenodd" clip-rule="evenodd"
      d="M13.5816 4.02379C13.6292 4.10597 13.9017 4.38746 13.9143 4.59933C13.9273 4.81101 13.7241 6.0894 14.0268 6.51809C14.3392 6.95953 15.888 7.24126 16.2169 7.17461C16.9531 7.02486 17.3129 6.00043 17.5505 5.57335C17.6847 5.33142 18.0743 5.43581 18.0743 5.43581C18.0743 5.43581 18.4639 5.5402 18.4595 5.81663C18.4516 6.30555 18.2508 7.37579 18.8131 7.87286C19.0647 8.09563 20.5469 8.62607 21.0386 8.4001C21.5146 8.18004 21.9784 6.96802 22.0956 6.79092C22.2121 6.61394 22.5893 6.50653 22.6714 6.45913C22.7541 6.41187 22.8236 6.1526 22.7757 6.07008C22.6806 5.90581 21.1795 5.37987 19.4815 5.11801C19.1427 5.06584 18.9925 5.12577 18.213 4.91692C17.4341 4.70821 17.3335 4.58079 17.0142 4.4569C15.4138 3.83527 13.8506 3.54009 13.6858 3.63475C13.6037 3.68215 13.5342 3.94169 13.5816 4.02379Z"
      fill="white" />
  </g>
  <defs>
    <linearGradient id="paint0_linear_1_9" x1="12" y1="0" x2="12" y2="24" gradientUnits="userSpaceOnUse">
      <stop stop-color="#FF8000" />
      <stop offset="1" stop-color="#FF4000" />
    </linearGradient>
    <clipPath id="clip0_1_9">
      <rect width="24" height="24" fill="white" />
    </clipPath>
  </defs>
</svg>
