<svg width="74" height="10" viewBox="0 0 74 10" fill="none" xmlns="http://www.w3.org/2000/svg">
<g clip-path="url(#clip0_2014_36)">
<path d="M3.50002 8.53794C3.00002 6.70461 2.10002 2.83794 2.50002 2.03794M1.00002 2.53794C2.66668 2.03794 6.20002 1.43794 7.00002 3.03794C7.80002 4.63794 3.33335 5.37127 1.00002 5.53794" stroke="#0B1820"/>
<path d="M7.00002 3.27515C9.00002 2.60849 13 1.47515 13 2.27515C13 2.7274 11.7217 3.52053 10.2491 4.27515M7.00002 5.77515C7.8694 5.41291 9.11669 4.85541 10.2491 4.27515M9.50002 9.27515C9.00002 7.27515 8.10002 3.17515 8.50002 2.77515M10.2491 4.27515C11.4994 4.10848 14 4.77515 14 8.77515" stroke="#0B1820"/>
<path d="M48 3.27515C50 2.60849 54 1.47515 54 2.27515C54 2.7274 52.7217 3.52053 51.2491 4.27515M48 5.77515C48.8694 5.41291 50.1167 4.85541 51.2491 4.27515M50.5 9.27515C50 7.27515 49.1 3.17515 49.5 2.77515M51.2491 4.27515C52.4994 4.10848 55 4.77515 55 8.77515" stroke="#0B1820"/>
<path d="M14 3.99999C14.8333 5.66666 16.7 8.89999 17.5 8.49999C18.3 8.09999 19.5 3.99999 20 1.99999C20.5947 2.09911 21.3752 2.25424 22.1888 2.45485M22.1888 2.45485C24.1112 2.92886 26.219 3.65683 26.5 4.49999C26.9 5.69999 23.3333 7.33333 21.5 7.99999C21.2925 6.80323 21.1398 4.01873 22.1888 2.45485Z" stroke="#0B1820"/>
<path d="M29.2209 0.999996C29.0542 1.83333 28.8209 3.6 29.2209 4" stroke="#0B1820"/>
<path d="M29.5 9C29.8333 6.83333 30.8209 2 31.2209 2C31.5542 3.83333 32.6 8.5 33 8.5C33.3333 7.33333 34.7209 2.5 35.2209 2C35.2209 2 36.5209 8.5 37.7209 8.5" stroke="#0B1820"/>
<path d="M40.6376 2.5C40.3042 4.33333 39.7376 8 40.1376 8C40.5376 8 42.3042 5.33333 43.1376 4C43.6376 5.66666 45.0376 9 46.6376 9C48.6376 9 47.6376 3 47.1376 0.999996" stroke="#0B1820"/>
<path d="M59.7949 4.30624C59.0367 2.83306 57.4268 2.15104 56.1992 2.7829C54.9715 3.41476 54.591 5.12123 55.3492 6.59441C56.1075 8.06758 57.7174 8.7496 58.945 8.11774C60.1726 7.48588 60.5532 5.77941 59.7949 4.30624ZM59.7949 4.30624C60.5 5 60.04 7.48363 61.2066 9.1503M59.7949 4.30624C61.3879 6.60854 62.9181 7.28001 65.1101 9C65.7768 7.33333 67.0101 3.8 66.6101 3" stroke="#0B1820"/>
<path d="M71.7928 2.51556C70.6261 1.18222 68.1387 1.84911 67.2394 4.24729C65.7394 8.24728 71.6495 9.41456 72.6495 7.91456C73.4495 6.71456 70.4061 5.74729 68.7394 5.24729" stroke="#0B1820"/>
</g>
<defs>
<clipPath id="clip0_2014_36">
<rect width="74" height="10" fill="white"/>
</clipPath>
</defs>
</svg>
