<svg width="24" height="24" viewBox="0 0 24 24" fill="none" xmlns="http://www.w3.org/2000/svg">
<g clip-path="url(#clip0_35_23)">
<path fill-rule="evenodd" clip-rule="evenodd" d="M4.49103 1.93413C4.77213 0.865931 5.86596 0.227863 6.93416 0.508968L22.0659 4.491C23.1341 4.7721 23.7721 5.86593 23.491 6.93413L19.509 22.0658C19.2279 23.134 18.1341 23.7721 17.0659 23.491L1.93416 19.509C0.865961 19.2279 0.227893 18.134 0.508999 17.0658L4.49103 1.93413ZM12.7234 20.0821L13.1701 18.4147C13.4046 18.7493 13.6822 19.0275 14.0029 19.2494C14.3236 19.4712 14.6646 19.6305 15.0262 19.7274C15.2383 19.7842 15.4286 19.8147 15.597 19.8189C15.7654 19.8231 15.9117 19.8055 16.0359 19.7662C16.16 19.7269 16.2606 19.6681 16.3373 19.5901C16.4142 19.512 16.467 19.4191 16.4959 19.3114C16.535 19.1655 16.5282 19.0241 16.4754 18.8871C16.4227 18.7501 16.3373 18.6136 16.219 18.4777C16.1008 18.3418 15.9547 18.2021 15.7807 18.0587C15.6068 17.9153 15.4176 17.766 15.2133 17.6107C14.6944 17.211 14.3386 16.7973 14.1457 16.3696C13.9529 15.9419 13.9231 15.4797 14.0562 14.9829C14.1604 14.5939 14.3282 14.2805 14.5596 14.0428C14.791 13.8051 15.0656 13.632 15.3834 13.5235C15.7013 13.4151 16.0489 13.3658 16.4263 13.3758C16.8038 13.3856 17.1906 13.4437 17.5869 13.5499C17.9763 13.6542 18.3151 13.7701 18.6033 13.8976C18.8914 14.0251 19.1494 14.1714 19.3771 14.3367L18.9596 15.8947C18.8578 15.7743 18.7417 15.6613 18.6117 15.5558C18.4816 15.4501 18.3442 15.3547 18.1994 15.2694C18.0546 15.184 17.9076 15.1102 17.7584 15.0479C17.6094 14.9856 17.4653 14.9358 17.3262 14.8985C17.135 14.8473 16.9562 14.819 16.79 14.8135C16.6238 14.8081 16.478 14.8239 16.3525 14.8611C16.2271 14.8982 16.1224 14.9548 16.0386 15.0311C15.9549 15.1073 15.8977 15.2027 15.8669 15.3173C15.8334 15.4424 15.8364 15.5632 15.876 15.6799C15.9155 15.7966 15.9842 15.9156 16.0822 16.0368C16.1801 16.158 16.3046 16.2844 16.4556 16.4161C16.6067 16.5478 16.7796 16.6881 16.9744 16.8372C17.2399 17.0423 17.4729 17.2472 17.6733 17.4516C17.8737 17.6562 18.0355 17.8698 18.1583 18.0926C18.2812 18.3154 18.3574 18.5527 18.3868 18.8044C18.4162 19.0562 18.3904 19.3332 18.3094 19.6354C18.1977 20.0523 18.0249 20.3811 17.7909 20.6218C17.5568 20.8625 17.2806 21.0343 16.9625 21.137C16.6443 21.2398 16.295 21.2811 15.9148 21.2612C15.5345 21.2412 15.1444 21.1776 14.7446 21.0705C14.3343 20.9606 13.9534 20.8213 13.6018 20.6526C13.2501 20.4839 12.9573 20.2938 12.7234 20.0821ZM13.647 14.0951L11.5028 13.5206L9.8648 19.6335L8.16614 19.1784L9.80411 13.0654L7.67034 12.4937L8.03822 11.1207L14.0149 12.7222L13.647 14.0951Z" fill="currentcolor"/>
</g>
<defs>
<clipPath id="clip0_35_23">
<rect width="24" height="24" fill="currentcolor"/>
</clipPath>
</defs>
</svg>
