<svg width="144" height="81" viewBox="0 0 144 81" fill="none" xmlns="http://www.w3.org/2000/svg">
<path d="M54.1986 59.2178C54.4561 59.4711 55.7361 60.2266 55.998 60.9931C56.261 61.7585 56.8229 66.6707 58.3631 67.9366C59.9515 69.2395 65.8849 68.6833 67.0157 68.0999C69.5468 66.792 69.8148 62.653 70.2457 60.8375C70.4885 59.8094 72.015 59.7928 72.015 59.7928C72.015 59.7928 73.5416 59.7763 73.8073 60.7978C74.2767 62.6046 74.6351 66.7486 77.1912 67.9992C78.3354 68.56 84.2792 68.9874 85.8416 67.6503C87.3524 66.3514 87.8084 61.4153 88.055 60.6433C88.2994 59.8723 89.5652 59.0892 89.8162 58.8304C90.0693 58.5716 90.0584 57.5463 89.7998 57.2919C89.2858 56.7853 83.2776 56.394 76.8212 57.1766C75.5329 57.3331 75.0463 57.708 71.9921 57.7411C68.94 57.7742 68.4435 57.4089 67.1532 57.2814C60.6859 56.6401 54.6863 57.1616 54.1822 57.6793C53.9312 57.9381 53.9422 58.9645 54.1986 59.2178Z" stroke="#3C4A54" stroke-width="0.5"/>
<path fill-rule="evenodd" clip-rule="evenodd" d="M68.7739 66.25H75.4312C75.5316 66.4236 75.6393 66.5909 75.7549 66.75H68.474C68.5814 66.5901 68.6812 66.4229 68.7739 66.25ZM57.3093 66.25H56.5H56.3713L56.2966 66.3547L53.7966 69.8547L53.75 69.9199V70V78V78.25H54H90H90.25V78V70V69.9199L90.2034 69.8547L87.7034 66.3547L87.6287 66.25H87.5H86.736C86.663 66.426 86.586 66.5936 86.5046 66.75H87.3713L89.5142 69.75H54.4858L56.6287 66.75H57.526C57.4503 66.5912 57.3781 66.4238 57.3093 66.25ZM54.25 70.25H89.75V77.75H54.25V70.25Z" fill="#3C4A54"/>
<path d="M120 80L99 63V49.5M120 80V58M120 80H143V58M120 58H143M120 58L99 49.5M143 58L109 49.5H99" stroke="#3C4A54" stroke-width="0.5"/>
<mask id="path-4-inside-1_187_5" fill="white">
<path fill-rule="evenodd" clip-rule="evenodd" d="M109 69.8421L104.25 65.9671V52.7895L109 54.7895V69.8421ZM114.25 74.125L109.5 70.25V55L114.25 57V74.125ZM114.75 57.2105L119 59V78L114.75 74.5329V57.2105ZM103.75 52.5789V65.5592L100 62.5V51L103.75 52.5789Z"/>
</mask>
<path d="M109 69.8421L108.684 70.2295L109.5 70.8953V69.8421H109ZM104.25 65.9671H103.75V66.2045L103.934 66.3545L104.25 65.9671ZM104.25 52.7895L104.444 52.3287L103.75 52.0364V52.7895H104.25ZM109 54.7895H109.5V54.4575L109.194 54.3287L109 54.7895ZM114.25 74.125L113.934 74.5124L114.75 75.1782V74.125H114.25ZM109.5 70.25H109V70.4874L109.184 70.6374L109.5 70.25ZM109.5 55L109.694 54.5392L109 54.247V55H109.5ZM114.25 57H114.75V56.668L114.444 56.5392L114.25 57ZM114.75 57.2105L114.944 56.7497L114.25 56.4575V57.2105H114.75ZM119 59H119.5V58.668L119.194 58.5392L119 59ZM119 78L118.684 78.3874L119.5 79.0532V78H119ZM114.75 74.5329H114.25V74.7703L114.434 74.9203L114.75 74.5329ZM103.75 52.5789H104.25V52.247L103.944 52.1181L103.75 52.5789ZM103.75 65.5592L103.434 65.9466L104.25 66.6124V65.5592H103.75ZM100 62.5H99.5V62.7374L99.6839 62.8874L100 62.5ZM100 51L100.194 50.5392L99.5 50.247V51H100ZM109.316 69.4547L104.566 65.5797L103.934 66.3545L108.684 70.2295L109.316 69.4547ZM104.75 65.9671V52.7895H103.75V65.9671H104.75ZM104.056 53.2503L108.806 55.2503L109.194 54.3287L104.444 52.3287L104.056 53.2503ZM108.5 54.7895V69.8421H109.5V54.7895H108.5ZM114.566 73.7376L109.816 69.8626L109.184 70.6374L113.934 74.5124L114.566 73.7376ZM109 55V70.25H110V55H109ZM109.306 55.4608L114.056 57.4608L114.444 56.5392L109.694 54.5392L109.306 55.4608ZM114.75 74.125V57H113.75V74.125H114.75ZM114.556 57.6713L118.806 59.4608L119.194 58.5392L114.944 56.7497L114.556 57.6713ZM118.5 59V78H119.5V59H118.5ZM119.316 77.6126L115.066 74.1455L114.434 74.9203L118.684 78.3874L119.316 77.6126ZM115.25 74.5329V57.2105H114.25V74.5329H115.25ZM103.25 52.5789V65.5592H104.25V52.5789H103.25ZM104.066 65.1718L100.316 62.1126L99.6839 62.8874L103.434 65.9466L104.066 65.1718ZM100.5 62.5V51H99.5V62.5H100.5ZM99.806 51.4608L103.556 53.0398L103.944 52.1181L100.194 50.5392L99.806 51.4608Z" fill="#3C4A54" mask="url(#path-4-inside-1_187_5)"/>
<path d="M123 59H121.25C121.112 59 121 59.1119 121 59.25V60.75C121 60.8881 121.112 61 121.25 61H123M124 61L124.453 59.1894C124.48 59.0781 124.58 59 124.695 59H125.305C125.42 59 125.52 59.0781 125.547 59.1894L126 61M127 61V59.25C127 59.1119 127.112 59 127.25 59H128.75C128.888 59 129 59.1119 129 59.25V59.3198C129 59.4274 128.931 59.523 128.829 59.557L127.985 59.8384C127.788 59.9041 127.752 60.1681 127.925 60.2835L129 61M131 60H131.75C131.888 60 132 60.1119 132 60.25V60.75C132 60.8881 131.888 61 131.75 61H130.25C130.112 61 130 60.8881 130 60.75V59.25C130 59.1119 130.112 59 130.25 59H132M135 59.25V60.75C135 60.8881 134.888 61 134.75 61H133.25C133.112 61 133 60.8881 133 60.75V59.25C133 59.1119 133.112 59 133.25 59H134.75C134.888 59 135 59.1119 135 59.25Z" stroke="#3C4A54" stroke-width="0.5" stroke-linecap="square"/>
<path d="M132 73V74.8455C132 74.9402 132.054 75.0268 132.138 75.0691L133.5 75.75M132 73L133.388 72.3059C133.459 72.2707 133.541 72.2707 133.612 72.3059L135 73M132 73L133.5 73.75M133.5 75.75L134.862 75.0691C134.946 75.0268 135 74.9402 135 74.8455V73M133.5 75.75L133.5 73.75M135 73L133.5 73.75" stroke="#3C4A54" stroke-width="0.5"/>
<path d="M130 76.3964V74.1545C130 74.0598 130.054 73.9732 130.138 73.9309L130.638 73.6809C130.804 73.5978 131 73.7187 131 73.9045L131 75.8964C131 75.9627 131.026 76.0263 131.073 76.0732L131.267 76.2675C131.374 76.3743 131.556 76.3314 131.604 76.1881C131.677 75.9693 132 76.0218 132 76.2523V78.25C132 78.3881 131.888 78.5 131.75 78.5H131.25C131.112 78.5 131 78.3881 131 78.25V77.6036C131 77.5372 130.974 77.4737 130.927 77.4268L130.073 76.5732C130.026 76.5263 130 76.4628 130 76.3964Z" stroke="#3C4A54" stroke-width="0.5"/>
<path d="M136 75.8964L136 73.9045C136 73.7187 136.196 73.5978 136.362 73.6809L136.862 73.9309C136.947 73.9732 137 74.0598 137 74.1545V76.3964C137 76.4628 136.974 76.5263 136.927 76.5732L136.073 77.4268C136.026 77.4737 136 77.5372 136 77.6036V78.25C136 78.3881 135.888 78.5 135.75 78.5H135.25C135.112 78.5 135 78.3881 135 78.25V76.2523C135 76.0218 135.323 75.9693 135.396 76.1881C135.444 76.3314 135.626 76.3743 135.733 76.2675L135.927 76.0732C135.974 76.0263 136 75.9628 136 75.8964Z" stroke="#3C4A54" stroke-width="0.5"/>
<path d="M138 74.4648V72.25C138 72.1119 138.112 72 138.25 72H140.32C140.427 72 140.523 72.0689 140.557 72.1709L140.959 73.3777C140.984 73.4527 140.965 73.5353 140.909 73.5912L140.736 73.7643C140.6 73.8998 140.759 74.1204 140.931 74.0347C140.975 74.0127 141.007 73.9725 141.019 73.9247L141.453 72.1894C141.48 72.0781 141.58 72 141.695 72H141.75C141.888 72 142 72.1119 142 72.25V74.4648C142 74.7992 141.833 75.1114 141.555 75.2969L140.945 75.7031C140.667 75.8886 140.5 76.2008 140.5 76.5352V77.25C140.5 77.3881 140.612 77.5 140.75 77.5C140.888 77.5 141 77.6119 141 77.75V78.25C141 78.3881 140.888 78.5 140.75 78.5H139.25C139.112 78.5 139 78.3881 139 78.25V77.75C139 77.6119 139.112 77.5 139.25 77.5C139.388 77.5 139.5 77.3881 139.5 77.25V76.5352C139.5 76.2008 139.333 75.8886 139.055 75.7031L138.445 75.2969C138.167 75.1114 138 74.7992 138 74.4648Z" stroke="#3C4A54" stroke-width="0.5"/>
<path d="M121 64V62.25C121 62.1119 121.112 62 121.25 62H126.75C126.888 62 127 62.1119 127 62.25V64M121 64H127M121 64V67M127 64V67M121 67H127M121 67V69M127 67V69M127 69H124M127 69V70M121 69H124M121 69V70M124 69V70M124 70H127M124 70H121M127 70V71.75C127 71.8881 126.888 72 126.75 72H121.25C121.112 72 121 71.8881 121 71.75V70" stroke="#3C4A54" stroke-width="0.5"/>
<path d="M122 64.75V66.25M124 66.25V64.75M125 66.25V64.75M126 66.25V64.75" stroke="#3C4A54" stroke-width="0.5"/>
<path d="M124.75 64.75H124.5V66.25H124.75V64.75Z" fill="#3C4A54"/>
<path d="M122.75 64.75H122.5V66.25H122.75V64.75Z" fill="#3C4A54"/>
</svg>
