<svg width="16" height="16" viewBox="0 0 16 16" fill="none" xmlns="http://www.w3.org/2000/svg">
<path fill-rule="evenodd" clip-rule="evenodd" d="M2.07773 8.06364C2.1622 8.14742 2.58351 8.39877 2.66797 8.6508C2.75278 8.90248 2.92464 10.5144 3.43059 10.9338C3.95238 11.3655 5.91697 11.2003 6.29278 11.0124C7.13389 10.5909 7.23442 9.23485 7.38216 8.64093C7.46543 8.30461 7.97053 8.30359 7.97053 8.30359C7.97053 8.30359 8.47564 8.30257 8.56062 8.6382C8.71075 9.23187 8.81747 10.5914 9.65957 11.0087C10.0365 11.1959 12.0017 11.3531 12.5225 10.9193C13.026 10.4979 13.191 8.88105 13.2748 8.62868C13.3579 8.37666 13.7789 8.12361 13.8627 8.03949C13.9472 7.95537 13.9465 7.61922 13.8617 7.53509C13.6931 7.36753 11.7064 7.22191 9.5681 7.45981C9.14142 7.50739 8.97938 7.6289 7.96882 7.63094C6.95897 7.63298 6.79574 7.51177 6.36922 7.46627C4.23137 7.23735 2.24497 7.391 2.07671 7.55924C1.99293 7.64336 1.99361 7.97986 2.07773 8.06364Z" fill="url(#paint0_linear_53_120)"/>
<path fill-rule="evenodd" clip-rule="evenodd" d="M2.07773 8.06364C2.1622 8.14742 2.58351 8.39877 2.66797 8.6508C2.75278 8.90248 2.92464 10.5144 3.43059 10.9338C3.95238 11.3655 5.91697 11.2003 6.29278 11.0124C7.13389 10.5909 7.23442 9.23485 7.38216 8.64093C7.46543 8.30461 7.97053 8.30359 7.97053 8.30359C7.97053 8.30359 8.47564 8.30257 8.56062 8.6382C8.71075 9.23187 8.81747 10.5914 9.65957 11.0087C10.0365 11.1959 12.0017 11.3531 12.5225 10.9193C13.026 10.4979 13.191 8.88105 13.2748 8.62868C13.3579 8.37666 13.7789 8.12361 13.8627 8.03949C13.9472 7.95537 13.9465 7.61922 13.8617 7.53509C13.6931 7.36753 11.7064 7.22191 9.5681 7.45981C9.14142 7.50739 8.97938 7.6289 7.96882 7.63094C6.95897 7.63298 6.79574 7.51177 6.36922 7.46627C4.23137 7.23735 2.24497 7.391 2.07671 7.55924C1.99293 7.64336 1.99361 7.97986 2.07773 8.06364Z" fill="url(#paint1_linear_53_120)"/>
<path fill-rule="evenodd" clip-rule="evenodd" d="M2.07773 8.06364C2.1622 8.14742 2.58351 8.39877 2.66797 8.6508C2.75278 8.90248 2.92464 10.5144 3.43059 10.9338C3.95238 11.3655 5.91697 11.2003 6.29278 11.0124C7.13389 10.5909 7.23442 9.23485 7.38216 8.64093C7.46543 8.30461 7.97053 8.30359 7.97053 8.30359C7.97053 8.30359 8.47564 8.30257 8.56062 8.6382C8.71075 9.23187 8.81747 10.5914 9.65957 11.0087C10.0365 11.1959 12.0017 11.3531 12.5225 10.9193C13.026 10.4979 13.191 8.88105 13.2748 8.62868C13.3579 8.37666 13.7789 8.12361 13.8627 8.03949C13.9472 7.95537 13.9465 7.61922 13.8617 7.53509C13.6931 7.36753 11.7064 7.22191 9.5681 7.45981C9.14142 7.50739 8.97938 7.6289 7.96882 7.63094C6.95897 7.63298 6.79574 7.51177 6.36922 7.46627C4.23137 7.23735 2.24497 7.391 2.07671 7.55924C1.99293 7.64336 1.99361 7.97986 2.07773 8.06364Z" fill="url(#paint2_linear_53_120)"/>
<path fill-rule="evenodd" clip-rule="evenodd" d="M2.07773 8.06364C2.1622 8.14742 2.58351 8.39877 2.66797 8.6508C2.75278 8.90248 2.92464 10.5144 3.43059 10.9338C3.95238 11.3655 5.91697 11.2003 6.29278 11.0124C7.13389 10.5909 7.23442 9.23485 7.38216 8.64093C7.46543 8.30461 7.97053 8.30359 7.97053 8.30359C7.97053 8.30359 8.47564 8.30257 8.56062 8.6382C8.71075 9.23187 8.81747 10.5914 9.65957 11.0087C10.0365 11.1959 12.0017 11.3531 12.5225 10.9193C13.026 10.4979 13.191 8.88105 13.2748 8.62868C13.3579 8.37666 13.7789 8.12361 13.8627 8.03949C13.9472 7.95537 13.9465 7.61922 13.8617 7.53509C13.6931 7.36753 11.7064 7.22191 9.5681 7.45981C9.14142 7.50739 8.97938 7.6289 7.96882 7.63094C6.95897 7.63298 6.79574 7.51177 6.36922 7.46627C4.23137 7.23735 2.24497 7.391 2.07671 7.55924C1.99293 7.64336 1.99361 7.97986 2.07773 8.06364Z" fill="url(#paint3_linear_53_120)"/>
<path fill-rule="evenodd" clip-rule="evenodd" d="M6.14504 2.00908C3.96468 1.7973 3.31673 5.36063 3.31673 5.36063C3.31673 5.36063 0.855545 5.47633 1.00669 6.26618C1.05555 6.52153 1.421 6.79294 1.99738 7.04337C2.03011 7.03205 2.06255 7.02252 2.09317 7.01437C2.19466 6.98736 2.31609 6.96513 2.44759 6.94649C2.71299 6.90887 3.06183 6.88003 3.46475 6.8642C4.27201 6.8325 5.32742 6.85187 6.42227 6.96909C6.60952 6.98908 6.73361 7.01435 6.8542 7.03893C7.08943 7.08688 7.31206 7.13226 7.96782 7.13094C8.59706 7.12967 8.82784 7.0871 9.05325 7.04046L9.08279 7.03433C9.20296 7.00934 9.32661 6.98364 9.51281 6.96287C10.6079 6.84103 11.6636 6.81731 12.4711 6.84571C12.8741 6.85989 13.223 6.88731 13.4885 6.92385C13.6201 6.94196 13.7416 6.9637 13.8432 6.99031C13.8936 7.00353 13.949 7.02048 14.0026 7.04298C14.0233 7.05163 14.054 7.06525 14.0891 7.08556C14.7529 6.77759 15.0371 6.43114 14.9961 6.11205C14.8879 5.26455 13.0103 5.41868 13.0103 5.41868C13.0103 5.41868 12.8158 4.62883 12.4267 3.80095C11.8179 2.50268 10.808 1.85495 9.87973 2.04791C8.72526 2.28769 8.07589 2.21665 6.94939 2.09341C6.70669 2.06686 6.44185 2.03789 6.14504 2.00908Z" fill="#BAE7F5"/>
<defs>
<linearGradient id="paint0_linear_53_120" x1="7.94929" y1="7.20775" x2="8.09246" y2="11.3077" gradientUnits="userSpaceOnUse">
<stop stop-color="#D15500"/>
<stop offset="1" stop-color="#E26600"/>
</linearGradient>
<linearGradient id="paint1_linear_53_120" x1="7.94929" y1="7.20775" x2="8.09246" y2="11.3077" gradientUnits="userSpaceOnUse">
<stop stop-color="#D15500"/>
<stop offset="1" stop-color="#E26600"/>
</linearGradient>
<linearGradient id="paint2_linear_53_120" x1="7.94929" y1="7.20775" x2="8.09246" y2="11.3077" gradientUnits="userSpaceOnUse">
<stop stop-color="#D15500"/>
<stop offset="1" stop-color="#E26600"/>
</linearGradient>
<linearGradient id="paint3_linear_53_120" x1="7.94929" y1="7.20775" x2="8.09246" y2="11.3077" gradientUnits="userSpaceOnUse">
<stop stop-color="#D15500"/>
<stop offset="1" stop-color="#E26600"/>
</linearGradient>
</defs>
</svg>
