<svg width="144" height="81" viewBox="0 0 144 81" fill="none" xmlns="http://www.w3.org/2000/svg">
<g clip-path="url(#clip0_61_2)">
<path fill-rule="evenodd" clip-rule="evenodd" d="M-1.5 14.5V11.5H5C9.49285 11.5 13.2572 14.6189 14.2462 18.8096C14.3934 18.7154 14.5428 18.6244 14.6943 18.5368C13.5971 14.2051 9.67283 11 5 11H-1.5H-2V11.5V14.5V15H-1.5H6C8.39876 15 10.403 16.6892 10.8881 18.9429L11.4518 19.2684C11.094 16.5767 8.78953 14.5 6 14.5H-1.5Z" fill="#D15500"/>
<rect x="-11.75" y="17.25" width="17.5" height="41.5" stroke="#D15500" stroke-width="0.5"/>
<rect x="-11.75" y="19.25" width="15.5" height="37.5" stroke="#D15500" stroke-opacity="0.5" stroke-width="0.5"/>
<rect x="136.25" y="19.25" width="20.5" height="37.5" stroke="#D15500" stroke-opacity="0.5" stroke-width="0.5"/>
<path d="M134 52.75H106.25V17.25H157.75V58.75H134.25V53V52.75H134Z" stroke="#D15500" stroke-width="0.5"/>
<path fill-rule="evenodd" clip-rule="evenodd" d="M6 41.5H7.7004L7.30573 41.9893L7.31905 42H6V45H7.4486L7.64161 45.5H6H5.5V45V42V41.5H6ZM16.0097 42.1863L16.251 42.8112C19.5892 44.14 22.1581 46.9873 23.1048 50.5H23.5L23.5 50.25C23.5 50.2116 23.5086 50.1753 23.5241 50.1428C22.4457 46.4349 19.6263 43.4681 16.0097 42.1863ZM20.4236 50.5C20.0539 48.1062 18.3783 46.1436 16.1474 45.3631L15.8123 45.7785C17.7739 46.3993 19.2995 48.0011 19.813 50.008C19.9206 50.036 20 50.1337 20 50.25L20 50.5H20.4236Z" fill="#D15500"/>
<path fill-rule="evenodd" clip-rule="evenodd" d="M18.5 51V47.5313C18.6809 47.7363 18.8481 47.9537 19 48.1822V51H19.9795H22H22.5V51.5H22H19H18.5V51ZM22 42V46.8644C22.1772 47.131 22.3441 47.405 22.5 47.686V42V41.5H22H19H18.5V42V43.4112C18.6697 43.5207 18.8364 43.6344 19 43.7521V42H22Z" fill="#D15500" fill-opacity="0.5"/>
<path d="M23.75 9.25V12.75H17C11.6152 12.75 7.25 8.38477 7.25 3V0.75H10.75V4C10.75 6.89949 13.1005 9.25 16 9.25H23.75Z" stroke="#D15500" stroke-width="0.5"/>
<rect x="37.25" y="22.25" width="38.5" height="10.5" stroke="#D15500" stroke-width="0.5"/>
<rect x="35.25" y="20.25" width="42.5" height="14.5" stroke="#D15500" stroke-width="0.5"/>
<path d="M39 31V28M39 28V24.5C39 24.2239 39.2239 24 39.5 24H41.5C41.7761 24 42 24.2239 42 24.5V26.191C42 26.3804 41.893 26.5535 41.7236 26.6382L39 28ZM43 31V28M43 28V24.5C43 24.2239 43.2239 24 43.5 24H45.5C45.7761 24 46 24.2239 46 24.5V26.191C46 26.3804 45.893 26.5535 45.7236 26.6382L44.5 27.25M43 28L44.5 27.25M51 24V28.8615C51 28.9521 51.0246 29.041 51.0713 29.1188L52.0713 30.7854C52.2655 31.1091 52.7345 31.1091 52.9287 30.7854L53.9287 29.1188C53.9754 29.041 54 28.9521 54 28.8615V24M44.5 27.25L45.7236 27.8618C45.893 27.9465 46 28.1196 46 28.309V31M55 24H56.5M58 24H56.5M56.5 24V31M55 31H58M66 31H63.5C63.2239 31 63 30.7761 63 30.5V27.5M63 27.5V24.5C63 24.2239 63.2239 24 63.5 24H66M63 27.5H66M67 28V24.5C67 24.2239 67.2239 24 67.5 24H69.5C69.7761 24 70 24.2239 70 24.5V26.191C70 26.3804 69.893 26.5535 69.7236 26.6382L68.5 27.25M67 28V31M67 28L68.5 27.25M68.5 27.25L69.7236 27.8618C69.893 27.9465 70 28.1196 70 28.309V31M71 24H73.5C73.7761 24 74 24.2239 74 24.5V24.8615C74 24.9521 73.9754 25.041 73.9287 25.1188L71.0713 29.8812C71.0246 29.959 71 30.0479 71 30.1385V30.5C71 30.7761 71.2239 31 71.5 31H74M60.65 24.2L61.9 25.8667C61.9649 25.9532 62 26.0585 62 26.1667V28.8333C62 28.9415 61.9649 29.0468 61.9 29.1333L60.65 30.8C60.5556 30.9259 60.4074 31 60.25 31H59.5C59.2239 31 59 30.7761 59 30.5V24.5C59 24.2239 59.2239 24 59.5 24H60.25C60.4074 24 60.5556 24.0741 60.65 24.2ZM47 30.5V24.5C47 24.2239 47.2239 24 47.5 24H49.5C49.7761 24 50 24.2239 50 24.5V30.5C50 30.7761 49.7761 31 49.5 31H47.5C47.2239 31 47 30.7761 47 30.5Z" stroke="#D15500" stroke-width="0.5" stroke-linecap="square"/>
<path d="M32.893 3.78349L32.6765 3.65849L32.5515 3.875L31.9674 4.88659C31.6521 4.8376 31.3291 4.81218 31 4.81218C30.671 4.81218 30.3479 4.8376 30.0326 4.8866L29.4486 3.875L29.3236 3.65849L29.1071 3.78349L25.643 5.78349L25.4265 5.90849L25.5515 6.125L26.1359 7.13723C25.7316 7.63768 25.4029 8.20179 25.1673 8.81218H24H23.75V9.06218V13.0622V13.3122H24H25.1673C25.4029 13.9226 25.7316 14.4867 26.1359 14.9871L25.5515 15.9994L25.4265 16.2159L25.643 16.3409L29.1071 18.3409L29.3236 18.4659L29.4486 18.2494L30.0326 17.2378C30.3479 17.2868 30.671 17.3122 31 17.3122C31.3291 17.3122 31.6521 17.2868 31.9674 17.2378L32.5515 18.2494L32.6765 18.4659L32.893 18.3409L36.3571 16.3409L36.5736 16.2159L36.4486 15.9994L35.8642 14.9871C36.2685 14.4867 36.5972 13.9226 36.8328 13.3122H38H38.25V13.0622V9.06218V8.81218H38H36.8328C36.5972 8.20179 36.2685 7.63768 35.8642 7.13723L36.4486 6.125L36.5736 5.90849L36.3571 5.78349L32.893 3.78349Z" stroke="#D15500" stroke-width="0.5"/>
<path d="M34.25 11C34.25 12.7949 32.7949 14.25 31 14.25C29.2051 14.25 27.75 12.7949 27.75 11C27.75 9.20507 29.2051 7.75 31 7.75C32.7949 7.75 34.25 9.20507 34.25 11Z" stroke="#D15500" stroke-width="0.5"/>
<path d="M35.2115 7.61932C35.2115 8.03354 34.8757 8.36932 34.4615 8.36932C34.0473 8.36932 33.7115 8.03354 33.7115 7.61932C33.7115 7.20511 34.0473 6.86932 34.4615 6.86932C34.8757 6.86932 35.2115 7.20511 35.2115 7.61932Z" stroke="#D15500" stroke-width="0.5"/>
<path fill-rule="evenodd" clip-rule="evenodd" d="M35.7274 11.4661L35.9763 11.4903C35.992 11.329 36 11.1654 36 11C36 10.8346 35.992 10.671 35.9763 10.5097L35.7274 10.5339L35.4786 10.5582C35.4928 10.7034 35.5 10.8508 35.5 11C35.5 11.1492 35.4928 11.2966 35.4786 11.4418L35.7274 11.4661ZM35.5467 9.62057L35.7859 9.54808C35.6901 9.23187 35.5638 8.9289 35.4105 8.6426L35.1901 8.76064L34.9697 8.87867C35.1077 9.13626 35.2213 9.40874 35.3074 9.69306L35.5467 9.62057ZM33.2394 6.80988L33.3574 6.58951C33.0711 6.43616 32.7681 6.30987 32.4519 6.21407L32.3794 6.45333L32.3069 6.69259C32.5913 6.77873 32.8637 6.89229 33.1213 7.03026L33.2394 6.80988ZM31.4661 6.27256L31.4903 6.02373C31.329 6.00803 31.1654 6 31 6C30.8346 6 30.671 6.00803 30.5097 6.02373L30.5339 6.27256L30.5582 6.52138C30.7034 6.50725 30.8508 6.5 31 6.5C31.1492 6.5 31.2966 6.50725 31.4418 6.52138L31.4661 6.27256ZM29.6206 6.45333L29.5481 6.21407C29.2319 6.30987 28.9289 6.43616 28.6426 6.58951L28.7606 6.80988L28.8787 7.03026C29.1363 6.89229 29.4087 6.77873 29.6931 6.69259L29.6206 6.45333ZM27.9867 7.32796L27.828 7.1348C27.575 7.3427 27.3427 7.57495 27.1348 7.82798L27.328 7.98669L27.5211 8.1454C27.7084 7.91753 27.9175 7.70835 28.1454 7.52113L27.9867 7.32796ZM26.8099 8.76064L26.5895 8.6426C26.4362 8.9289 26.3099 9.23187 26.2141 9.54808L26.4533 9.62057L26.6926 9.69306C26.7787 9.40874 26.8923 9.13626 27.0303 8.87868L26.8099 8.76064ZM26 11C26 10.8346 26.008 10.671 26.0237 10.5097L26.2726 10.5339L26.5214 10.5582C26.5072 10.7034 26.5 10.8508 26.5 11C26.5 11.1492 26.5072 11.2966 26.5214 11.4418L26.2726 11.4661L26.0237 11.4903C26.008 11.329 26 11.1654 26 11ZM26.4533 12.3794L26.2141 12.4519C26.3099 12.7681 26.4362 13.0711 26.5895 13.3574L26.8099 13.2394L27.0303 13.1213C26.8923 12.8637 26.7787 12.5913 26.6926 12.3069L26.4533 12.3794ZM27.328 14.0133L27.1348 14.172C27.3427 14.425 27.575 14.6573 27.828 14.8652L27.9867 14.672L28.1454 14.4789C27.9175 14.2916 27.7084 14.0825 27.5211 13.8546L27.328 14.0133ZM28.7606 15.1901L28.6426 15.4105C28.9289 15.5638 29.2319 15.6901 29.5481 15.7859L29.6206 15.5467L29.6931 15.3074C29.4087 15.2213 29.1363 15.1077 28.8787 14.9697L28.7606 15.1901ZM30.5339 15.7274L30.5097 15.9763C30.671 15.992 30.8346 16 31 16C31.1654 16 31.329 15.992 31.4903 15.9763L31.4661 15.7274L31.4418 15.4786C31.2966 15.4928 31.1492 15.5 31 15.5C30.8508 15.5 30.7034 15.4928 30.5582 15.4786L30.5339 15.7274ZM32.3794 15.5467L32.4519 15.7859C32.7681 15.6901 33.0711 15.5638 33.3574 15.4105L33.2394 15.1901L33.1213 14.9697C32.8637 15.1077 32.5913 15.2213 32.3069 15.3074L32.3794 15.5467ZM34.0133 14.672L34.172 14.8652C34.425 14.6573 34.6573 14.425 34.8652 14.172L34.672 14.0133L34.4789 13.8546C34.2916 14.0825 34.0825 14.2916 33.8546 14.4789L34.0133 14.672ZM35.1901 13.2394L35.4105 13.3574C35.5638 13.0711 35.6901 12.7681 35.7859 12.4519L35.5467 12.3794L35.3074 12.3069C35.2213 12.5913 35.1077 12.8637 34.9697 13.1213L35.1901 13.2394Z" fill="#D15500" fill-opacity="0.5"/>
<path d="M33.0731 10.15C33.0731 10.8403 32.5135 11.4 31.8231 11.4C31.1328 11.4 30.5731 10.8403 30.5731 10.15C30.5731 9.45959 31.1328 8.89995 31.8231 8.89995C32.5135 8.89995 33.0731 9.45959 33.0731 10.15Z" stroke="#D15500" stroke-width="0.5"/>
<path fill-rule="evenodd" clip-rule="evenodd" d="M16.9413 15H23.9413V17.5423C25.532 18.0499 26.9722 18.8943 28.1782 19.9916L30.3827 18.7189L33.8827 24.7811L31.6804 26.0526C31.8513 26.8413 31.9413 27.6601 31.9413 28.5C31.9413 29.3399 31.8513 30.1587 31.6804 30.9474L33.8827 32.2189L30.3827 38.2811L28.1783 37.0084C26.9722 38.1057 25.532 38.9501 23.9413 39.4577V42H16.9413V39.4577C15.3507 38.9501 13.9105 38.1057 12.7044 37.0084L10.5 38.2811L7 32.2189L9.20232 30.9474C9.03138 30.1587 8.94134 29.3399 8.94134 28.5C8.94134 27.6601 9.03138 26.8413 9.20232 26.0526L7 24.7811L10.5 18.7189L12.7044 19.9916C13.9105 18.8943 15.3507 18.0499 16.9413 17.5423V15ZM17.4413 17.9141C17.273 17.9617 17.1063 18.0132 16.9413 18.0685C15.5319 18.5412 14.2498 19.2916 13.16 20.2547C13.0293 20.3702 12.9013 20.4888 12.7762 20.6104L10.683 19.4019L7.68302 24.5981L9.77383 25.8052C9.73136 25.9739 9.69277 26.1441 9.65819 26.3158C9.51597 27.0217 9.44134 27.7522 9.44134 28.5C9.44134 29.2478 9.51597 29.9783 9.65819 30.6842C9.69277 30.8559 9.73136 31.0261 9.77383 31.1948L7.68301 32.4019L10.683 37.5981L12.7762 36.3896C12.9013 36.5111 13.0293 36.6298 13.16 36.7453C14.2498 37.7084 15.5319 38.4588 16.9413 38.9315C17.1063 38.9868 17.273 39.0383 17.4413 39.0859V41.5H23.4413V39.0859C23.6097 39.0383 23.7764 38.9868 23.9413 38.9315C25.3508 38.4588 26.6329 37.7084 27.7227 36.7453C27.8534 36.6298 27.9814 36.5111 28.1065 36.3896L30.1997 37.5981L33.1997 32.4019L31.1089 31.1948C31.1513 31.0261 31.1899 30.8559 31.2245 30.6842C31.3667 29.9783 31.4413 29.2478 31.4413 28.5C31.4413 27.7522 31.3667 27.0217 31.2245 26.3158C31.1899 26.1441 31.1513 25.9739 31.1089 25.8052L33.1997 24.5981L30.1997 19.4019L28.1065 20.6104C27.9814 20.4889 27.8534 20.3702 27.7227 20.2547C26.6329 19.2916 25.3508 18.5412 23.9413 18.0685C23.7764 18.0132 23.6097 17.9617 23.4413 17.9141V15.5H17.4413V17.9141Z" fill="#D15500"/>
<path d="M11.5 27.25H11.25V27.5V29.5V29.75H11.5H15.9162C16.1344 30.5522 16.5577 31.27 17.1262 31.8436L14.9175 35.6692L14.7925 35.8857L15.009 36.0107L16.741 37.0107L16.9575 37.1357L17.0825 36.9192L19.2906 33.0947C19.6768 33.196 20.0821 33.25 20.5 33.25C20.9179 33.25 21.3232 33.196 21.7094 33.0947L23.9175 36.9192L24.0425 37.1357L24.259 37.0107L25.991 36.0107L26.2075 35.8857L26.0825 35.6692L23.8738 31.8436C24.4423 31.27 24.8656 30.5522 25.0838 29.75H29.5H29.75V29.5V27.5V27.25H29.5H25.0838C24.8656 26.4478 24.4423 25.73 23.8738 25.1564L26.0825 21.3308L26.2075 21.1143L25.991 20.9893L24.259 19.9893L24.0425 19.8643L23.9175 20.0808L21.7094 23.9053C21.3232 23.804 20.9179 23.75 20.5 23.75C20.0821 23.75 19.6768 23.804 19.2906 23.9053L17.0825 20.0808L16.9575 19.8643L16.741 19.9893L15.009 20.9893L14.7925 21.1143L14.9175 21.3308L17.1262 25.1564C16.5577 25.73 16.1344 26.4478 15.9162 27.25H11.5Z" stroke="#D15500" stroke-width="0.5"/>
<path d="M25.25 28.5C25.25 31.1234 23.1234 33.25 20.5 33.25C17.8766 33.25 15.75 31.1234 15.75 28.5C15.75 25.8766 17.8766 23.75 20.5 23.75C23.1234 23.75 25.25 25.8766 25.25 28.5Z" stroke="#D15500" stroke-width="0.5"/>
<path d="M22.25 20.5C22.25 21.4665 21.4665 22.25 20.5 22.25C19.5335 22.25 18.75 21.4665 18.75 20.5C18.75 19.5335 19.5335 18.75 20.5 18.75C21.4665 18.75 22.25 19.5335 22.25 20.5ZM22.25 36.5C22.25 37.4665 21.4665 38.25 20.5 38.25C19.5335 38.25 18.75 37.4665 18.75 36.5C18.75 35.5335 19.5335 34.75 20.5 34.75C21.4665 34.75 22.25 35.5335 22.25 36.5Z" stroke="#D15500" stroke-width="0.5"/>
<path d="M14.4468 22.9845C15.2838 23.4677 15.5706 24.538 15.0873 25.375C14.6041 26.212 13.5338 26.4988 12.6968 26.0155C11.8598 25.5323 11.573 24.462 12.0563 23.625C12.5395 22.788 13.6098 22.5012 14.4468 22.9845ZM28.3032 30.9845C29.1402 31.4677 29.427 32.538 28.9438 33.375C28.4605 34.212 27.3902 34.4988 26.5532 34.0155C25.7162 33.5323 25.4294 32.462 25.9127 31.625C26.3959 30.788 27.4662 30.5012 28.3032 30.9845Z" stroke="#D15500" stroke-width="0.5"/>
<path d="M28.3032 26.0155C27.4662 26.4988 26.3959 26.212 25.9127 25.375C25.4294 24.538 25.7162 23.4677 26.5532 22.9845C27.3902 22.5012 28.4605 22.788 28.9437 23.625C29.427 24.462 29.1402 25.5323 28.3032 26.0155ZM14.4468 34.0155C13.6098 34.4988 12.5395 34.212 12.0562 33.375C11.573 32.538 11.8598 31.4677 12.6968 30.9845C13.5338 30.5012 14.6041 30.788 15.0873 31.625C15.5706 32.462 15.2838 33.5323 14.4468 34.0155Z" stroke="#D15500" stroke-width="0.5"/>
<path d="M5.5 -0.75H5.25V-0.5V0C5.25 0.326555 5.4587 0.604365 5.75 0.707324L5.75 0.750003C5.75 1.02614 5.97386 1.25 6.25 1.25C6.52614 1.25 6.75 1.02614 6.75 0.75L11.25 0.750003C11.25 1.02614 11.4739 1.25 11.75 1.25C12.0261 1.25 12.25 1.02614 12.25 0.749997L12.25 0.707323C12.5413 0.604364 12.75 0.326554 12.75 0V-0.5V-0.75H12.5H5.5Z" stroke="#D15500" stroke-width="0.5"/>
<path d="M49.75 20C49.75 19.6734 49.5413 19.3956 49.25 19.2927L49.25 19.25C49.25 18.9739 49.0261 18.75 48.75 18.75C48.4739 18.75 48.25 18.9739 48.25 19.25L43.75 19.25C43.75 18.9739 43.5261 18.75 43.25 18.75C42.9739 18.75 42.75 18.9739 42.75 19.25L42.75 19.2927C42.4587 19.3956 42.25 19.6734 42.25 20L42.5 20L42.5 20.25L49.5 20.25L49.5 20L49.75 20Z" stroke="#D15500" stroke-width="0.5"/>
<path fill-rule="evenodd" clip-rule="evenodd" d="M38 9.5V9C38.1677 9 38.3344 9.00413 38.5 9.01228C43.7906 9.2728 48 13.6448 48 19V19.5H47.5V19C47.5 13.921 43.5143 9.77294 38.5 9.51293L38.5 12.5H39C42.0376 12.5 44.5 14.9624 44.5 18V19.5H44V18C44 15.2386 41.7614 13 39 13H38.5H38V12.5V9.5ZM44 20V20.5H44.5H47.5H48V20H47.5H44.5H44Z" fill="#D15500"/>
<g opacity="0.5">
<path d="M18.75 0.75H22.25V9.25H18.75V0.75Z" stroke="#D15500" stroke-width="0.5"/>
<path d="M18.75 12.75H22.25V15.25H18.75V12.75Z" stroke="#D15500" stroke-width="0.5"/>
<path d="M16.75 0C16.75 0.326556 16.9587 0.604366 17.25 0.707324L17.25 0.750003C17.25 1.02614 17.4739 1.25 17.75 1.25C18.0262 1.25 18.25 1.02614 18.25 0.75L22.75 0.750003C22.75 1.02614 22.9739 1.25 23.25 1.25C23.5261 1.25 23.75 1.02614 23.75 0.749997L23.75 0.707323C24.0413 0.604363 24.25 0.326553 24.25 0H24V-0.25H17V0H16.75Z" stroke="#D15500" stroke-width="0.5"/>
</g>
<g opacity="0.5">
<path fill-rule="evenodd" clip-rule="evenodd" d="M53.5004 49.3405C53.5184 51.7841 54.0958 54.1917 55.1892 56.3783L56.6554 59.3108C57.2108 60.4217 57.5 61.6466 57.5 62.8885V73H58V62.8885C58 61.569 57.6928 60.2675 57.1026 59.0872L55.6364 56.1547C54.5602 54.0025 54 51.6292 54 49.2229V48.7639C53.8101 48.9338 53.642 49.1276 53.5004 49.3405ZM57 48V51.1115C57 52.431 57.3072 53.7325 57.8974 54.9128L59.3636 57.8453C60.4397 59.9975 61 62.3708 61 64.7771L61 65H61.5V64.7771C61.5 62.2932 60.9217 59.8434 59.8108 57.6217L58.3446 54.6892C57.7892 53.5783 57.5 52.3534 57.5 51.1115V48H57ZM57.5 74.3229V74.5V75H58H59C58.4027 75 57.8665 74.7381 57.5 74.3229Z" fill="#D15500"/>
<path d="M53.75 0.75H57.25V20.25H53.75V0.75Z" stroke="#D15500" stroke-width="0.5"/>
<path d="M53.75 34.75H57.25V39.75H53.75V34.75Z" stroke="#D15500" stroke-width="0.5"/>
<path d="M51.75 0C51.75 0.326556 51.9587 0.604366 52.25 0.707324L52.25 0.750003C52.25 1.02614 52.4739 1.25 52.75 1.25C53.0262 1.25 53.25 1.02614 53.25 0.75L57.75 0.750003C57.75 1.02614 57.9739 1.25 58.25 1.25C58.5261 1.25 58.75 1.02614 58.75 0.749997L58.75 0.707323C59.0413 0.604363 59.25 0.326553 59.25 0H59V-0.25H52V0H51.75Z" stroke="#D15500" stroke-width="0.5"/>
</g>
<path d="M8 67.75C7.67344 67.75 7.39563 67.9587 7.29268 68.25L7.25 68.25C6.97386 68.25 6.75 68.4739 6.75 68.75C6.75 69.0262 6.97386 69.25 7.25 69.25L7.25 73.75C6.97386 73.75 6.75 73.9739 6.75 74.25C6.75 74.5261 6.97386 74.75 7.25 74.75L7.29268 74.75C7.39564 75.0413 7.67345 75.25 8 75.25L8 75L8.25 75L8.25 68L8 68L8 67.75Z" stroke="#D15500" stroke-width="0.5"/>
<path d="M132.75 0C132.75 0.326556 132.959 0.604366 133.25 0.707324L133.25 0.750003C133.25 1.02614 133.474 1.25 133.75 1.25C134.026 1.25 134.25 1.02614 134.25 0.75L138.75 0.750003C138.75 1.02614 138.974 1.25 139.25 1.25C139.526 1.25 139.75 1.02614 139.75 0.749997L139.75 0.707323C140.041 0.604363 140.25 0.326553 140.25 0H140V-0.25H133V0H132.75Z" stroke="#D15500" stroke-width="0.5"/>
<path fill-rule="evenodd" clip-rule="evenodd" d="M144.5 14.5V15C144.332 15 144.166 14.9959 144 14.9877C138.709 14.7272 134.5 10.3552 134.5 5V0.5H135L135 5C135 10.079 138.986 14.2271 144 14.4871V11.5H143.5C140.462 11.5 138 9.03757 138 6L138 0.5H138.5L138.5 6C138.5 8.76142 140.739 11 143.5 11H144H144.5V11.5V14.5ZM138.5 3.57628e-07V-0.5H138H135H134.5V0L135 5.96046e-08L138.5 3.57628e-07Z" fill="#D15500"/>
<path fill-rule="evenodd" clip-rule="evenodd" d="M61.5 -0.5H103.5V49.5H61.5V35H61V49.5V50H61.5H103.5H104V49.5V-0.5V-1H103.5H61.5H61V-0.5V20H61.5V-0.5Z" fill="#D15500"/>
<path d="M24.5 51.25H24.75V51C24.75 50.6734 24.5413 50.3956 24.25 50.2927L24.25 50.25C24.25 49.9739 24.0261 49.75 23.75 49.75C23.4739 49.75 23.25 49.9739 23.25 50.25L20.25 50.25C20.25 49.9739 20.0261 49.75 19.75 49.75C19.4739 49.75 19.25 49.9739 19.25 50.25L19.25 50.2927C18.9587 50.3956 18.75 50.6734 18.75 51H19V51.25H24.5ZM20 50.5H23.25H20Z" stroke="#D15500" stroke-width="0.5"/>
<path d="M38 52.75H37.75V53V77V77.25H38H38.8964L40.8232 79.1768L40.8964 79.25H41H42H42.25V79V51V50.75H42H41H40.8964L40.8232 50.8232L38.8964 52.75H38Z" stroke="#D15500" stroke-width="0.5"/>
<rect x="10.25" y="53.25" width="16.5" height="17.5" stroke="#D15500" stroke-width="0.5"/>
<path d="M8.5 73H37.5" stroke="#D15500" stroke-width="0.5" stroke-linecap="square"/>
<rect x="8.25" y="51.25" width="29.5" height="27.5" stroke="#D15500" stroke-width="0.5"/>
<path d="M12.5212 55.8151C12.6064 55.8981 13.0299 56.1458 13.1166 56.3971C13.2036 56.648 13.3895 58.2583 13.8991 58.6733C14.4246 59.1005 16.3877 58.9181 16.7619 58.7269C17.5993 58.2981 17.688 56.9412 17.8305 56.346C17.9108 56.009 18.4159 56.0036 18.4159 56.0036C18.4159 56.0036 18.921 55.9982 19.0089 56.333C19.1642 56.9254 19.2828 58.2839 20.1285 58.6939C20.507 58.8777 22.4736 59.0178 22.9905 58.5795C23.4904 58.1537 23.6412 56.5355 23.7228 56.2824C23.8037 56.0296 24.2225 55.7729 24.3055 55.6881C24.3893 55.6032 24.3856 55.2671 24.3001 55.1837C24.13 55.0176 22.1422 54.8893 20.006 55.1459C19.5798 55.1972 19.4188 55.3201 18.4083 55.331C17.3985 55.3418 17.2342 55.222 16.8073 55.1803C14.6676 54.97 12.6826 55.141 12.5158 55.3107C12.4328 55.3955 12.4364 55.732 12.5212 55.8151Z" stroke="#D15500" stroke-width="0.5"/>
<path d="M12.5212 60.8151C12.6064 60.8981 13.0299 61.1458 13.1166 61.3971C13.2036 61.648 13.3895 63.2583 13.8991 63.6733C14.4246 64.1005 16.3877 63.9181 16.7619 63.7269C17.5993 63.2981 17.688 61.9412 17.8305 61.346C17.9108 61.009 18.4159 61.0036 18.4159 61.0036C18.4159 61.0036 18.921 60.9982 19.0089 61.333C19.1642 61.9254 19.2828 63.2839 20.1285 63.6939C20.507 63.8777 22.4736 64.0178 22.9905 63.5795C23.4904 63.1537 23.6412 61.5355 23.7228 61.2824C23.8037 61.0296 24.2225 60.7729 24.3055 60.6881C24.3893 60.6032 24.3856 60.2671 24.3001 60.1837C24.13 60.0176 22.1422 59.8893 20.006 60.1459C19.5798 60.1972 19.4188 60.3201 18.4083 60.331C17.3985 60.3418 17.2342 60.222 16.8073 60.1803C14.6676 59.97 12.6826 60.141 12.5158 60.3107C12.4328 60.3955 12.4364 60.732 12.5212 60.8151Z" stroke="#D15500" stroke-width="0.5"/>
<path d="M12.5212 65.8151C12.6064 65.8981 13.0299 66.1458 13.1166 66.3971C13.2036 66.648 13.3895 68.2583 13.8991 68.6733C14.4246 69.1005 16.3877 68.9181 16.7619 68.7269C17.5993 68.2981 17.688 66.9412 17.8305 66.346C17.9108 66.009 18.4159 66.0036 18.4159 66.0036C18.4159 66.0036 18.921 65.9982 19.0089 66.333C19.1642 66.9254 19.2828 68.2839 20.1285 68.6939C20.507 68.8777 22.4736 69.0178 22.9905 68.5795C23.4904 68.1537 23.6412 66.5355 23.7228 66.2824C23.8037 66.0296 24.2225 65.7729 24.3055 65.6881C24.3893 65.6032 24.3856 65.2671 24.3001 65.1837C24.13 65.0176 22.1422 64.8893 20.006 65.1459C19.5798 65.1972 19.4188 65.3201 18.4083 65.331C17.3985 65.3418 17.2342 65.222 16.8073 65.1803C14.6676 64.97 12.6826 65.141 12.5158 65.3107C12.4328 65.3955 12.4364 65.732 12.5212 65.8151Z" stroke="#D15500" stroke-width="0.5"/>
<circle cx="32" cy="57" r="3.75" transform="rotate(45 32 57)" stroke="#D15500" stroke-width="0.5"/>
<path d="M34.4749 54.5251L32 57" stroke="#D15500" stroke-width="0.5" stroke-linecap="square"/>
<circle cx="32" cy="67" r="3.75" transform="rotate(-45 32 67)" stroke="#D15500" stroke-width="0.5"/>
<path d="M29.5251 64.5251L32 67" stroke="#D15500" stroke-width="0.5" stroke-linecap="square"/>
<path d="M11.8804 75H10.7554C10.4792 75 10.2554 75.2239 10.2554 75.5V76.5C10.2554 76.7761 10.4792 77 10.7554 77H11.8804M17.5679 75V76.5C17.5679 76.7761 17.7917 77 18.0679 77H19.1929M19.1929 76H20.0054M23.2554 76H24.0679M24.8804 77V75.2883L25.6929 76L26.5054 75.2883V77M28.9429 77H27.8179C27.5417 77 27.3179 76.7761 27.3179 76.5V76M27.3179 76V75.5C27.3179 75.2239 27.5417 75 27.8179 75H28.9429M27.3179 76H28.9429M29.7554 75H30.5679M31.3804 75H30.5679M30.5679 75V77M33.8179 77H32.6929C32.4167 77 32.1929 76.7761 32.1929 76.5V76M33.8179 75H32.6929C32.4167 75 32.1929 75.2239 32.1929 75.5V76M32.1929 76H33.8179M34.6304 77V75.5C34.6304 75.2239 34.8542 75 35.1304 75H35.3262C35.6986 75 35.9043 75.4321 35.6695 75.7211V75.7211C35.5375 75.8836 35.5375 76.1164 35.6695 76.2789L36.2554 77M22.4429 75.5V76.5C22.4429 76.7761 22.219 77 21.9429 77H21.3179C21.0417 77 20.8179 76.7761 20.8179 76.5V75.5C20.8179 75.2239 21.0417 75 21.3179 75H21.9429C22.219 75 22.4429 75.2239 22.4429 75.5ZM16.7554 75.5V76.5C16.7554 76.7761 16.5315 77 16.2554 77H15.6304C15.3542 77 15.1304 76.7761 15.1304 76.5V75.5C15.1304 75.2239 15.3542 75 15.6304 75H16.2554C16.5315 75 16.7554 75.2239 16.7554 75.5ZM14.3179 75.5V76.5C14.3179 76.7761 14.094 77 13.8179 77H13.1929C12.9167 77 12.6929 76.7761 12.6929 76.5V75.5C12.6929 75.2239 12.9167 75 13.1929 75H13.8179C14.094 75 14.3179 75.2239 14.3179 75.5Z" stroke="#D15500" stroke-width="0.5" stroke-linecap="square"/>
<path d="M9.34627 39.4597L9.15168 39.3027L8.99472 39.4973L7.11115 41.8323L6.95419 42.0269L7.14877 42.1838L7.6359 42.5768C7.5648 42.8508 7.52176 43.1298 7.50633 43.4094L6.92171 43.6351L6.68849 43.7251L6.77852 43.9584L7.85889 46.7571L7.94893 46.9903L8.18215 46.9003L8.76678 46.6746C8.86604 46.7722 8.971 46.8658 9.08161 46.955C9.19222 47.0442 9.30594 47.127 9.42232 47.2034L9.32545 47.8225L9.2868 48.0695L9.5338 48.1082L12.4977 48.5719L12.7447 48.6105L12.7834 48.3635L12.8802 47.7444C13.1503 47.6701 13.4139 47.5691 13.6666 47.4416L14.1537 47.8345L14.3483 47.9915L14.5053 47.7969L16.3888 45.4619L16.5458 45.2674L16.3512 45.1104L15.8641 44.7174C15.9352 44.4435 15.9782 44.1645 15.9937 43.8848L16.5783 43.6591L16.8115 43.5691L16.7215 43.3359L15.6411 40.5372L15.5511 40.3039L15.3179 40.394L14.7332 40.6197C14.634 40.5221 14.529 40.4284 14.4184 40.3392C14.3078 40.25 14.1941 40.1672 14.0777 40.0908L14.1746 39.4717L14.2132 39.2247L13.9662 39.1861L11.0023 38.7223L10.7553 38.6837L10.7166 38.9307L10.6198 39.5498C10.3497 39.6241 10.0861 39.7252 9.8334 39.8526L9.34627 39.4597Z" stroke="#D15500" stroke-width="0.5"/>
<path d="M13.6452 41.4968L13.5933 41.3621L13.4507 41.3398L10.9807 40.9534L10.8381 40.931L10.7475 41.0434L9.17783 42.9892L9.08721 43.1016L9.13919 43.2362L10.0395 45.5685L10.0915 45.7031L10.2341 45.7254L12.704 46.1119L12.8466 46.1342L12.9373 46.0218L14.5069 44.076L14.5975 43.9637L14.5455 43.829L13.6452 41.4968Z" stroke="#D15500" stroke-width="0.5"/>
<path fill-rule="evenodd" clip-rule="evenodd" d="M61 39.5H54.7561C49.368 39.5 45 43.868 45 49.2561C45 50.7715 43.7715 52 42.2561 52H42V52.5H42.2561C44.0477 52.5 45.5 51.0477 45.5 49.2561C45.5 44.1441 49.6441 40 54.7561 40H61V39.5ZM61 47.5H56C54.067 47.5 52.5 49.067 52.5 51C52.5 55.6944 48.6944 59.5 44 59.5H42V60H44C48.9706 60 53 55.9706 53 51C53 49.3431 54.3431 48 56 48H61V47.5ZM38 59.5V60H37.5V59.5V52.5V52H38V52.5V59.5Z" fill="#D15500"/>
<circle cx="53" cy="43" r="1.75" stroke="#D15500" stroke-width="0.5"/>
<circle cx="47" cy="56" r="1.75" stroke="#D15500" stroke-width="0.5"/>
<circle cx="56.5" cy="45.5" r="1.25" stroke="#D15500" stroke-width="0.5"/>
<circle cx="47.5" cy="51.5" r="1.25" stroke="#D15500" stroke-width="0.5"/>
<circle cx="59" cy="42" r="0.75" stroke="#D15500" stroke-width="0.5"/>
<circle cx="53" cy="47" r="0.75" stroke="#D15500" stroke-width="0.5"/>
<circle cx="44" cy="54" r="0.75" stroke="#D15500" stroke-width="0.5"/>
<rect x="63.25" y="2.25" width="38.5" height="7.5" stroke="#D15500" stroke-width="0.5"/>
<rect x="64.25" y="3.25" width="5.5" height="5.5" stroke="#D15500" stroke-width="0.5"/>
<path d="M73 5H71.5C71.2239 5 71 5.22386 71 5.5V6.5C71 6.77614 71.2239 7 71.5 7H73M77 7L77.0117 5.17587L78.0117 5.67587L79.0117 5.17587L79 7M80 8V7M80 7V5.5C80 5.22386 80.2239 5 80.5 5H81.5C81.7761 5 82 5.22386 82 5.5V6.5C82 6.77614 81.7761 7 81.5 7H80ZM86 7V5.30902C86 5.13835 86.1384 5 86.309 5V5C86.4261 5 86.5331 5.06613 86.5854 5.17082L87.4146 6.82918C87.4669 6.93387 87.5739 7 87.691 7V7C87.8616 7 88 6.86165 88 6.69098V5M91 7H89.5C89.2239 7 89 6.77614 89 6.5V6M89 6V5.5C89 5.22386 89.2239 5 89.5 5H91M89 6H91M92 7V5.30902C92 5.13835 92.1384 5 92.309 5V5C92.4261 5 92.5331 5.06613 92.5854 5.17082L93.4146 6.82918C93.4669 6.93387 93.5739 7 93.691 7V7C93.8616 7 94 6.86165 94 6.69098V5M95 5H96M97 5H96M96 5V7M98 5H99.691C99.8616 5 100 5.13835 100 5.30902V5.30902C100 5.42606 99.9339 5.53307 99.8292 5.58541L98.1708 6.41459C98.0661 6.46693 98 6.57394 98 6.69098V6.69098C98 6.86165 98.1384 7 98.309 7H100M85 5.5V6.5C85 6.77614 84.7761 7 84.5 7H83.5C83.2239 7 83 6.77614 83 6.5V5.5C83 5.22386 83.2239 5 83.5 5H84.5C84.7761 5 85 5.22386 85 5.5ZM76 5.5V6.5C76 6.77614 75.7761 7 75.5 7H74.5C74.2239 7 74 6.77614 74 6.5V5.5C74 5.22386 74.2239 5 74.5 5H75.5C75.7761 5 76 5.22386 76 5.5Z" stroke="#D15500" stroke-width="0.5" stroke-linecap="square"/>
<path d="M65.5 7.5L68.5 4.5M68.5 4.5H66M68.5 4.5V7" stroke="#D15500" stroke-width="0.5" stroke-linecap="square"/>
<rect x="108.25" y="19.25" width="25.5" height="7.5" stroke="#D15500" stroke-width="0.5"/>
<path d="M116 24V22.309C116 22.1384 116.138 22 116.309 22V22C116.426 22 116.533 22.0661 116.585 22.1708L117.415 23.8292C117.467 23.9339 117.574 24 117.691 24V24C117.862 24 118 23.8616 118 23.691V22M121 24H119.5C119.224 24 119 23.7761 119 23.5V23M119 23V22.5C119 22.2239 119.224 22 119.5 22H121M119 23H121M122 22H123M124 22H123M123 22V24" stroke="#D15500" stroke-width="0.5" stroke-linecap="square"/>
<rect x="109.25" y="20.25" width="5.5" height="5.5" stroke="#D15500" stroke-width="0.5"/>
<path d="M110.5 21.5L113.5 24.5M113.5 24.5V22M113.5 24.5H111" stroke="#D15500" stroke-width="0.5" stroke-linecap="square"/>
<g opacity="0.5">
<path d="M37 34.75H36.75V35V38C36.75 39.5188 35.5188 40.75 34 40.75H33C29.5482 40.75 26.75 43.5482 26.75 47V51V51.25H27H30H30.25V51V47C30.25 45.4812 31.4812 44.25 33 44.25H34C37.4518 44.25 40.25 41.4518 40.25 38V35V34.75H40H37Z" stroke="#D15500" stroke-width="0.5"/>
<path d="M42 34.75H41.75V35V43C41.75 44.5188 40.5188 45.75 39 45.75H37C34.1005 45.75 31.75 48.1005 31.75 51H32V51.25H35V51H35.25C35.25 50.0335 36.0335 49.25 37 49.25H39C42.4518 49.25 45.25 46.4518 45.25 43V35V34.75H45H42Z" stroke="#D15500" stroke-width="0.5"/>
</g>
<path d="M9 78.75H8.75V79V81V81.25H9H37H37.25V81V79V78.75H37H9Z" stroke="#D15500" stroke-width="0.5"/>
<path d="M-24.25 75H-24V75.25C-15.3015 75.25 -8.25 82.3015 -8.25 91H-8V91.25H8V91H8.25C8.25 73.1888 -6.18882 58.75 -24 58.75V59H-24.25V75Z" stroke="#D15500" stroke-width="0.5"/>
<path d="M-24.25 75H-24V75.25C-15.3015 75.25 -8.25 82.3015 -8.25 91H-8V91.25H6V91H6.25C6.25 74.2934 -7.29339 60.75 -24 60.75V61H-24.25V75Z" stroke="#D15500" stroke-width="0.5"/>
<path fill-rule="evenodd" clip-rule="evenodd" d="M1 58.5H0.5V59V66C0.5 69.9741 3.59098 73.2263 7.5 73.4836L7.5 72.9824C3.86736 72.726 1 69.6979 1 66V59.5V59H1.5H3.5H4V59.5V66C4 68.0398 5.52684 69.723 7.5 69.9691V69.4646C5.80385 69.2219 4.5 67.7632 4.5 66V59V58.5H4H1ZM8 70V70.5V72.5V73H8.5V70H8Z" fill="#D15500"/>
<rect x="80.25" y="12.25" width="20.5" height="34.5" stroke="#D15500" stroke-width="0.5"/>
<rect x="63.25" y="37.25" width="14.5" height="9.5" stroke="#D15500" stroke-width="0.5"/>
<path d="M83.1768 15.1768L83.25 15.1036V15V14.25H97.75V15V15.1036L97.8232 15.1768L99.75 17.1036V17.75H81.25V17.1036L83.1768 15.1768Z" stroke="#D15500" stroke-width="0.5" stroke-linecap="square"/>
<path d="M63.1118 50.2236L63.25 50.1545V50V49.75H77.75V50V50.1545L77.8882 50.2236L78.75 50.6545V51.25H62.25V50.6545L63.1118 50.2236Z" stroke="#D15500" stroke-width="0.5" stroke-linecap="square"/>
<path d="M65.1118 39.7236L65.25 39.6545V39.5V38.75H75.75V39.5V39.6545L75.8882 39.7236L76.75 40.1545V40.75H64.25V40.1545L65.1118 39.7236Z" stroke="#D15500" stroke-width="0.5" stroke-linecap="square"/>
<path d="M86.5259 25.169L85.1218 24.3583L85.9325 22.9542L87.3366 23.7648L86.5259 25.169ZM82.6724 22.9441L83.483 21.54L84.8871 22.3506L84.0765 23.7547L82.6724 22.9441ZM84.8972 19.0905L86.3013 19.9011L85.4907 21.3052L84.0866 20.4946L84.8972 19.0905ZM86.5361 21.9088L87.3467 20.5047L88.7508 21.3154L87.9402 22.7195L86.5361 21.9088Z" stroke="#D15500" stroke-opacity="0.5" stroke-width="0.5"/>
<path d="M92.8296 19.2941L94.3069 20.6285L95.9156 19.4558L96.3263 21.4037L98.3171 21.4005L97.5045 23.2179L99.1169 24.3854L97.3913 25.378L98.0095 27.2703L96.03 27.0591L95.4178 28.9534L93.9405 27.6189L92.3319 28.7916L91.9211 26.8437L89.9304 26.8469L90.743 25.0296L89.1306 23.862L90.8562 22.8694L90.238 20.9771L92.2175 21.1884L92.8296 19.2941Z" stroke="#D15500" stroke-width="0.5"/>
<path d="M94.7061 26.2971C95.9064 25.9754 96.6187 24.7417 96.2971 23.5414C95.9754 22.3411 94.7417 21.6288 93.5414 21.9504C92.3411 22.272 91.6288 23.5058 91.9504 24.7061C92.272 25.9064 93.5058 26.6187 94.7061 26.2971Z" stroke="#D15500" stroke-width="0.5"/>
<path d="M83.0353 26L88.8308 27.5529C89.1349 27.6344 89.3828 27.8542 89.5 28.1463L89.9657 29.3064C90.1312 29.7188 90.0047 30.1911 89.6551 30.4655L88.6718 31.2373C88.4242 31.4316 88.0996 31.4981 87.7956 31.4166L82 29.8637L83.0353 26Z" stroke="#D15500" stroke-width="0.5"/>
<path d="M88.7962 29.6142C88.7247 29.8809 88.4505 30.0392 88.1838 29.9677C87.9171 29.8963 87.7588 29.6221 87.8302 29.3554C87.9017 29.0886 88.1759 28.9303 88.4426 29.0018C88.7093 29.0733 88.8676 29.3474 88.7962 29.6142Z" stroke="#D15500" stroke-width="0.5"/>
<path d="M136.647 80.2284L135.094 74.4328C135.013 74.1288 135.079 73.8041 135.274 73.5566L136.045 72.5733C136.32 72.2237 136.792 72.0972 137.205 72.2627L138.365 72.7283C138.657 72.8456 138.877 73.0935 138.958 73.3975L140.511 79.1931L136.647 80.2284Z" stroke="#D15500" stroke-width="0.5"/>
<path d="M136.897 73.4322C137.163 73.3608 137.438 73.519 137.509 73.7858C137.581 74.0525 137.422 74.3267 137.156 74.3981C136.889 74.4696 136.615 74.3113 136.543 74.0446C136.472 73.7779 136.63 73.5037 136.897 73.4322Z" stroke="#D15500" stroke-width="0.5"/>
<path d="M96.0735 34.3792L96.594 32.4368C96.8607 32.5083 97.1349 32.35 97.2064 32.0832L97.4005 31.3588L97.4652 31.1173L97.2237 31.0526L93.36 30.0173L93.1185 29.9526L93.0538 30.1941L92.8597 30.9186C92.7882 31.1853 92.9465 31.4595 93.2133 31.5309L92.6928 33.4733C91.672 33.7977 90.8328 34.6195 90.535 35.7309C90.0704 37.4646 91.0993 39.2467 92.8331 39.7113C94.5668 40.1758 96.3489 39.1469 96.8135 37.4132C97.1113 36.3018 96.7954 35.1705 96.0735 34.3792Z" stroke="#D15500" stroke-width="0.5"/>
<path d="M91.3735 35.5932L91.239 35.3825L91.1736 35.4242L91.1433 35.4957L91.3735 35.5932ZM94.4443 37.1278L94.195 37.1467L94.2194 37.4687L94.525 37.3645L94.4443 37.1278ZM96.0721 37.2795L96.3119 37.3502L96.3681 37.1594L96.1948 37.0617L96.0721 37.2795ZM91.5079 35.804C91.9079 35.5489 92.4086 35.4564 92.9024 35.5887L93.0318 35.1058C92.3969 34.9357 91.7523 35.0551 91.239 35.3825L91.5079 35.804ZM92.9024 35.5887C93.6394 35.7862 94.1404 36.4261 94.195 37.1467L94.6936 37.1089C94.6234 36.1832 93.9802 35.3599 93.0318 35.1058L92.9024 35.5887ZM94.525 37.3645C94.842 37.2563 95.1931 37.2378 95.5414 37.3311L95.6708 36.8482C95.2238 36.7284 94.7714 36.7521 94.3636 36.8912L94.525 37.3645ZM95.5414 37.3311C95.6874 37.3703 95.8239 37.4266 95.9493 37.4973L96.1948 37.0617C96.0332 36.9706 95.8577 36.8983 95.6708 36.8482L95.5414 37.3311ZM95.8322 37.2089C95.4884 38.3761 94.2739 39.0621 93.0919 38.7453L92.9625 39.2283C94.4072 39.6154 95.8916 38.777 96.3119 37.3502L95.8322 37.2089ZM93.0919 38.7453C91.8916 38.4237 91.1793 37.19 91.5009 35.9897L91.0179 35.8603C90.6249 37.3273 91.4955 38.8352 92.9625 39.2283L93.0919 38.7453ZM91.5009 35.9897C91.5286 35.8862 91.5631 35.7865 91.6036 35.6908L91.1433 35.4957C91.0937 35.6126 91.0517 35.7343 91.0179 35.8603L91.5009 35.9897Z" fill="#D15500"/>
<path d="M95.5114 35.5114C95.4399 35.7781 95.1657 35.9364 94.899 35.8649C94.6322 35.7934 94.474 35.5193 94.5454 35.2525C94.6169 34.9858 94.8911 34.8275 95.1578 34.899C95.4245 34.9704 95.5828 35.2446 95.5114 35.5114Z" stroke="#D15500" stroke-width="0.5"/>
<path d="M89.2785 39L89.2138 38.7585C89.3472 38.7228 89.4843 38.8019 89.52 38.9353L89.2785 39ZM83 40.6823L82.7585 40.747C82.7228 40.6137 82.8019 40.4766 82.9353 40.4408L83 40.6823ZM84.1647 45.029L84.2294 45.2705C84.096 45.3062 83.9589 45.2271 83.9232 45.0937L84.1647 45.029ZM90.4432 43.3467L90.6847 43.282C90.7204 43.4153 90.6413 43.5524 90.5079 43.5881L90.4432 43.3467ZM87.2519 41.0959L87.0354 40.9709L87.1723 40.7339L87.396 40.8916L87.2519 41.0959ZM85.8377 43.5454L86.0542 43.6704L85.9292 43.8869L85.7127 43.7619L85.8377 43.5454ZM85.2253 43.1919L85.0088 43.0669L85.1338 42.8504L85.3503 42.9754L85.2253 43.1919ZM89.3432 39.2415L83.0647 40.9238L82.9353 40.4408L89.2138 38.7585L89.3432 39.2415ZM83.2415 40.6176L84.4062 44.9643L83.9232 45.0937L82.7585 40.747L83.2415 40.6176ZM84.1 44.7875L90.3785 43.1052L90.5079 43.5881L84.2294 45.2705L84.1 44.7875ZM90.2017 43.4114L89.037 39.0647L89.52 38.9353L90.6847 43.282L90.2017 43.4114ZM90.2991 43.551L87.1078 41.3002L87.396 40.8916L90.5873 43.1424L90.2991 43.551ZM87.4684 41.2209L86.0542 43.6704L85.6212 43.4204L87.0354 40.9709L87.4684 41.2209ZM85.7127 43.7619L85.1003 43.4084L85.3503 42.9754L85.9627 43.3289L85.7127 43.7619ZM85.4419 43.3169L84.3812 45.154L83.9482 44.904L85.0088 43.0669L85.4419 43.3169ZM84.5956 41.8077C84.6314 41.9411 84.7685 42.0202 84.9018 41.9845L85.0312 42.4674C84.6311 42.5746 84.2199 42.3372 84.1127 41.9371L84.5956 41.8077ZM84.9018 41.9845C85.0352 41.9487 85.1143 41.8116 85.0786 41.6783L85.5616 41.5489C85.6688 41.949 85.4313 42.3602 85.0312 42.4674L84.9018 41.9845ZM85.0786 41.6783C85.0429 41.5449 84.9058 41.4658 84.7724 41.5015L84.643 41.0185C85.0431 40.9113 85.4544 41.1488 85.5616 41.5489L85.0786 41.6783ZM84.7724 41.5015C84.639 41.5372 84.5599 41.6743 84.5956 41.8077L84.1127 41.9371C84.0055 41.537 84.2429 41.1257 84.643 41.0185L84.7724 41.5015Z" fill="#D15500"/>
<path d="M83.0616 35.3559L83.5793 37.2878L86.0287 38.702M83.0616 35.3559L85.5111 36.7702M83.0616 35.3559L86.4077 32.3888L88.8572 33.803M86.0287 38.702L89.3748 35.7349L88.8572 33.803M86.0287 38.702L85.5111 36.7702M88.8572 33.803L85.5111 36.7702" stroke="#D15500" stroke-opacity="0.5" stroke-width="0.5" stroke-linecap="square"/>
<path d="M98.9054 42.2791L98.9427 42.1397L98.8407 42.0376L97.4265 40.6234L97.3244 40.5214L97.185 40.5587L95.2531 41.0764L95.1137 41.1137L95.0764 41.2531L94.5587 43.185L94.5214 43.3244L94.6234 43.4265L96.0376 44.8407L96.1397 44.9427L96.2791 44.9054L98.211 44.3877L98.3504 44.3504L98.3878 44.211L98.9054 42.2791Z" stroke="#D15500" stroke-opacity="0.5" stroke-width="0.5"/>
<path d="M81.75 12.25H99.25V14.25H81.75V12.25Z" stroke="#D15500" stroke-width="0.5"/>
<path d="M64.25 37.25H76.75V38.75H64.25V37.25Z" stroke="#D15500" stroke-width="0.5"/>
<path d="M90.2254 55.2519L91.1913 55.5108M92.1572 55.7696L91.1913 55.5108M91.1913 55.5108L90.6736 57.4426M94.572 56.4166L93.6061 56.1578C93.3394 56.0863 93.0652 56.2446 92.9937 56.5114V56.5114C92.9223 56.7781 93.0805 57.0523 93.3473 57.1237L93.8302 57.2531C94.097 57.3246 94.2553 57.5988 94.1838 57.8655V57.8655C94.1123 58.1322 93.8382 58.2905 93.5714 58.2191L92.6055 57.9602" stroke="#D15500" stroke-width="0.5" stroke-linecap="square"/>
<rect x="89.635" y="50.6938" width="7.5" height="7.5" rx="0.75" transform="rotate(15 89.635 50.6938)" stroke="#D15500" stroke-width="0.5"/>
<rect x="63.25" y="12.25" width="14.5" height="5.5" stroke="#D15500" stroke-width="0.5"/>
<path d="M64.5 13.5H76.5M64.5 14.5H66M64.5 15.5H67M64.5 16.5H69M67 14.5H70M71 14.5H72" stroke="#D15500" stroke-width="0.5" stroke-linecap="square"/>
<rect x="94.9072" y="60.8484" width="7.5" height="7.5" rx="0.75" transform="rotate(-15 94.9072 60.8484)" stroke="#D15500" stroke-width="0.5"/>
<path d="M99.8189 60.8264C99.7474 60.5596 99.9057 60.2855 100.172 60.214L101.138 59.9552C101.405 59.8837 101.679 60.042 101.751 60.3087L102.01 61.2747C102.081 61.5414 101.923 61.8156 101.656 61.887L100.69 62.1458C100.423 62.2173 100.149 62.059 100.078 61.7923L99.8189 60.8264Z" fill="#D15500"/>
<path fill-rule="evenodd" clip-rule="evenodd" d="M120 75C128.837 75 136 82.1634 136 91H135.5C135.5 82.4396 128.56 75.5 120 75.5H110.5C95.7731 75.5 83.6551 64.33 82.156 50H82.6588C84.1557 64.0533 96.0495 75 110.5 75H120ZM98.878 50C100.21 55.1757 104.908 59 110.5 59H120C137.506 59 151.729 73.0575 151.996 90.5C151.999 90.6664 152 90.833 152 91H151.5H136.5H136V91.5H152V91H152.5C152.5 73.0507 137.949 58.5 120 58.5H110.5C105.187 58.5 100.715 54.8965 99.3952 50H98.878ZM98.5 47V46.5H82.5V47H83H98H98.5Z" fill="#D15500"/>
<path fill-rule="evenodd" clip-rule="evenodd" d="M137.5 91V91.5H138H150V91H150.5C150.5 74.1553 136.845 60.5 120 60.5H110.5C104.075 60.5 98.6987 56.012 97.3345 50H96.8222C98.1955 56.2904 103.798 61 110.5 61H120C136.402 61 149.729 74.1621 149.996 90.5C149.999 90.6663 150 90.833 150 91H149.5H138.5H138V90.5V89C138 80.1634 130.837 73 122 73H110.5C97.1552 73 86.1586 62.9463 84.6712 50H84.1679C85.6578 63.2231 96.8788 73.5 110.5 73.5H122C130.56 73.5 137.5 80.4396 137.5 89V91ZM84.5 47H85H96H96.5V46.5H84.5V47Z" fill="#D15500" fill-opacity="0.5"/>
<circle cx="-2.00001" cy="25" r="3.75" transform="rotate(-45 -2.00001 25)" stroke="#D15500" stroke-width="0.5"/>
<circle cx="-2" cy="35" r="3.75" transform="rotate(45 -2 35)" stroke="#D15500" stroke-width="0.5"/>
<path d="M0.474869 32.5251L-2 35" stroke="#D15500" stroke-width="0.5" stroke-linecap="square"/>
<circle cx="-2.00002" cy="45" r="3.75" stroke="#D15500" stroke-width="0.5"/>
<circle cx="142" cy="25" r="3.75" transform="rotate(-45 142 25)" stroke="#D15500" stroke-width="0.5"/>
<path d="M139.525 22.5251L142 25" stroke="#D15500" stroke-width="0.5" stroke-linecap="square"/>
<circle cx="142" cy="35" r="3.75" transform="rotate(45 142 35)" stroke="#D15500" stroke-width="0.5"/>
<path d="M144.475 32.5251L142 35" stroke="#D15500" stroke-width="0.5" stroke-linecap="square"/>
<circle cx="142" cy="45" r="3.75" stroke="#D15500" stroke-width="0.5"/>
<path d="M142 41.5V45" stroke="#D15500" stroke-width="0.5" stroke-linecap="square"/>
<path d="M124.076 40.1541C124.109 40.1769 124.142 40.2018 124.173 40.2286C124.202 40.2592 124.229 40.2917 124.256 40.326C124.279 40.3638 124.3 40.4032 124.32 40.4441C124.336 40.4879 124.349 40.533 124.36 40.5792C124.367 40.6276 124.371 40.6767 124.373 40.7266C124.369 40.7776 124.362 40.8289 124.353 40.8804C124.338 40.9319 124.32 40.983 124.299 41.0338C124.272 41.0833 124.243 41.1318 124.21 41.1793C124.172 41.2242 124.13 41.2675 124.086 41.309C124.037 41.3467 123.985 41.382 123.931 41.415C123.871 41.4428 123.81 41.4677 123.747 41.4897C123.68 41.5052 123.611 41.5173 123.541 41.526C123.468 41.5273 123.395 41.5247 123.321 41.5183C123.246 41.5037 123.17 41.485 123.095 41.4622C123.021 41.4309 122.948 41.3953 122.875 41.3554C122.805 41.3071 122.738 41.2545 122.671 41.1978C122.61 41.133 122.552 41.0643 122.496 40.9917C122.447 40.9119 122.402 40.8286 122.36 40.742C122.327 40.6494 122.298 40.5542 122.274 40.4563C122.261 40.3541 122.252 40.2502 122.249 40.1446C122.257 40.0368 122.271 39.9284 122.29 39.8194C122.322 39.7106 122.36 39.6024 122.404 39.495C122.461 39.3904 122.524 39.2878 122.593 39.1873C122.674 39.0924 122.761 39.0009 122.854 38.9129C122.958 38.8333 123.068 38.7586 123.184 38.6888C123.309 38.63 123.438 38.5774 123.572 38.531C123.714 38.498 123.859 38.4724 124.008 38.4541C124.161 38.4514 124.317 38.4568 124.474 38.4705C124.632 38.5012 124.791 38.5408 124.95 38.5891C125.107 38.6553 125.262 38.7306 125.416 38.8149C125.563 38.9171 125.707 39.0282 125.846 39.1481C125.976 39.2852 126.1 39.4305 126.217 39.584C126.321 39.7529 126.417 39.9289 126.505 40.112C126.575 40.3079 126.635 40.5093 126.686 40.7162C126.715 40.9324 126.733 41.1521 126.74 41.3754C126.723 41.6035 126.694 41.8327 126.653 42.0631C126.585 42.2933 126.505 42.522 126.412 42.7491C126.292 42.9705 126.159 43.1874 126.013 43.3999C125.842 43.6007 125.657 43.7941 125.46 43.9801C125.239 44.1484 125.007 44.3064 124.763 44.4542C124.499 44.5784 124.225 44.6897 123.941 44.7879C123.641 44.8575 123.334 44.9116 123.02 44.9504C122.696 44.9562 122.367 44.9446 122.035 44.9157C121.7 44.8507 121.364 44.7671 121.028 44.6649C120.695 44.5248 120.367 44.3657 120.043 44.1874C119.731 43.9712 119.428 43.7363 119.132 43.4827C118.858 43.1928 118.596 42.8856 118.347 42.561C118.128 42.2038 117.925 41.8316 117.74 41.4444C117.591 41.0302 117.464 40.6042 117.357 40.1666C117.295 39.7094 117.256 39.2448 117.242 38.7727C117.277 38.2903 117.339 37.8055 117.427 37.3182C117.57 36.8315 117.739 36.3479 117.937 35.8675C118.19 35.3995 118.471 34.9407 118.779 34.4913C119.142 34.0667 119.532 33.6577 119.949 33.2643C120.416 32.9084 120.907 32.5742 121.423 32.2619C121.982 31.999 122.562 31.7638 123.161 31.5561C123.796 31.4089 124.445 31.2944 125.109 31.2125C125.795 31.2002 126.489 31.2247 127.191 31.2858C127.902 31.4232 128.612 31.6 129.323 31.8161C130.025 32.1124 129.623 31.9298 130.308 32.3067M130.692 32.6718C134.792 36.7723 134.836 43.3774 130.788 47.4246C126.741 51.4719 120.136 51.4287 116.035 47.3282C111.935 43.2277 111.892 36.6226 115.939 32.5754C119.986 28.5281 126.591 28.5713 130.692 32.6718Z" stroke="#D15500" stroke-width="0.5"/>
<rect x="108.25" y="29.25" width="3.5" height="20.5" stroke="#D15500" stroke-opacity="0.5" stroke-width="0.5"/>
<path d="M110 48.4562C108.721 47.0752 108.721 45.4248 110 44.0438L110.081 43.9562C111.36 42.5752 111.36 40.9248 110.081 39.5438L110 39.4562C108.721 38.0752 108.721 36.4248 110 35.0438L110.081 34.9562C111.36 33.5752 111.36 31.9248 110.081 30.5438L110.041 30.5L110 30.5438C108.721 31.9248 108.721 33.5752 110 34.9562L110.081 35.0438C111.36 36.4248 111.36 38.0752 110.081 39.4562L110 39.5438C108.721 40.9248 108.721 42.5752 110 43.9562L110.081 44.0438C111.36 45.4248 111.36 47.0752 110.081 48.4562L110.041 48.5L110 48.4562Z" stroke="#D15500" stroke-width="0.5" stroke-linecap="square"/>
<path d="M116 -0.25H115.75L115.75 0L115.75 4.47232C115.75 7.02321 117.241 9.33869 119.563 10.3943L123.71 12.2793C125.561 13.1207 126.75 14.9665 126.75 17H127V17.25H131H131.25V17V15.5277C131.25 12.9768 129.759 10.6613 127.437 9.60574L126.021 8.96212C122.506 7.36465 120.25 3.86047 120.25 0H120V-0.25H116Z" stroke="#D15500" stroke-width="0.5"/>
<path fill-rule="evenodd" clip-rule="evenodd" d="M122.5 -0.5H122H118H117.5V0H118H118.5H120H121.5H122V0.5V6.03149C122.158 6.24403 122.325 6.45046 122.5 6.65025V0V-0.5ZM118.416 10.4306C118.295 10.0027 118.185 9.57148 118.088 9.13732C118.287 9.31502 118.498 9.4807 118.72 9.63295C118.741 9.71383 118.761 9.79459 118.783 9.87524C118.654 10.0561 118.532 10.2414 118.416 10.4306ZM121 16.3617C121.188 16.6711 121.383 16.9767 121.585 17.2783L122 17V17.5H126H126.934L126.416 16.7227L123.76 12.738C123.555 12.4315 123.375 12.1116 123.219 11.7811L122.543 11.4739C122.752 12.0126 123.02 12.5297 123.344 13.0154L125.667 16.5L126 17H125.399H122C121.644 16.4684 121.31 15.924 121 15.3682V16.3617Z" fill="#D15500"/>
<path fill-rule="evenodd" clip-rule="evenodd" d="M125 -0.5H124.5V0V2.51858C124.5 4.11217 123.624 5.57268 122.227 6.32511C122.334 6.4575 122.443 6.58729 122.557 6.71433C124.061 5.86106 125 4.26113 125 2.51858V0.5V0H125.5H128.5H129V0.5V1.53715C129 4.45535 127.683 7.17354 125.489 8.98251C125.629 9.05468 125.772 9.12378 125.917 9.18971L125.983 9.21954C128.186 7.31832 129.5 4.52757 129.5 1.53715V0V-0.5H129H125ZM122.664 11.5293L122.187 11.3122C121.435 12.1756 121 13.2955 121 14.4814V16.5V17H120.5H117.5H117V16.5V15.4628C117 13.3635 117.681 11.3677 118.881 9.73945C118.74 9.64917 118.603 9.5536 118.471 9.4531C117.214 11.1639 116.5 13.2591 116.5 15.4628V17V17.5H117H121H121.5V17V14.4814C121.5 13.3666 121.929 12.317 122.664 11.5293Z" fill="#D15500"/>
<path fill-rule="evenodd" clip-rule="evenodd" d="M114.5 -0.5H115H119H119.5V0H119H118.5H116H115.5H115V0.5V5.51858C115 6.02324 114.921 6.51595 114.773 6.98202C114.632 6.88111 114.487 6.78499 114.337 6.694C114.444 6.31694 114.5 5.92202 114.5 5.51858V0V-0.5ZM117.917 8.97877C117.698 9.39976 117.449 9.80416 117.172 10.1885C117.24 10.3837 117.3 10.5819 117.351 10.7826C117.709 10.3232 118.028 9.83383 118.302 9.32028C118.169 9.2115 118.04 9.09754 117.917 8.97877ZM114.139 12.9142C114.136 13.115 114.117 13.3164 114.081 13.5162C114.018 13.5494 113.954 13.5819 113.89 13.6139L113.46 13.8292C112.259 14.4297 111.5 15.6572 111.5 17H111C111 15.4678 111.866 14.0672 113.236 13.382L113.667 13.1667C113.827 13.0866 113.984 13.0023 114.139 12.9142ZM107 17H107.5H110.5H111V17.5H107V17ZM107 17C107 16.8324 107.006 16.6656 107.017 16.5C107.193 13.9404 108.708 11.6459 111.025 10.4875L112.333 9.83333C112.379 9.81043 112.424 9.78686 112.469 9.76263C112.349 9.68426 112.224 9.61184 112.092 9.54602C112.042 9.52101 111.992 9.49548 111.943 9.46944L110.801 10.0403C108.165 11.3584 106.5 14.0527 106.5 17H107Z" fill="#D15500"/>
<path fill-rule="evenodd" clip-rule="evenodd" d="M112 -0.5H112.5V0V3.43069C112.5 4.50951 113.11 5.49574 114.074 5.97821C116.229 7.05542 117.603 9.06344 117.961 11.2657C117.807 11.5841 117.67 11.9114 117.552 12.2462C117.489 9.8563 116.146 7.57311 113.851 6.42542C112.717 5.85826 112 4.6989 112 3.43069V0.5V0H111.5H108.5H108V0.5V2.92495C108 5.72884 109.584 8.29208 112.092 9.54602C114.138 10.5689 114.775 13.1838 113.43 15.0336L112.364 16.5L112 17H112.618H116L116.765 15.5661C116.854 15.3994 116.935 15.2305 117.008 15.0601C117.003 15.1939 117 15.3281 117 15.4628V16.1875L116.441 17.2353L116.3 17.5H116H112H111.018L111.596 16.7059L113.026 14.7395C114.189 13.1396 113.638 10.8779 111.868 9.99324C109.191 8.6546 107.5 5.91823 107.5 2.92495V0V-0.5H108H112Z" fill="#D15500"/>
<path d="M120.75 8C120.75 8.41421 120.414 8.75 120 8.75C119.586 8.75 119.25 8.41421 119.25 8C119.25 7.58579 119.586 7.25 120 7.25C120.414 7.25 120.75 7.58579 120.75 8Z" stroke="#D15500" stroke-width="0.5"/>
<path d="M110.75 5C110.75 5.41421 110.414 5.75 110 5.75C109.586 5.75 109.25 5.41421 109.25 5C109.25 4.58579 109.586 4.25 110 4.25C110.414 4.25 110.75 4.58579 110.75 5Z" stroke="#D15500" stroke-width="0.5"/>
<path d="M112.75 12C112.75 12.4142 112.414 12.75 112 12.75C111.586 12.75 111.25 12.4142 111.25 12C111.25 11.5858 111.586 11.25 112 11.25C112.414 11.25 112.75 11.5858 112.75 12Z" stroke="#D15500" stroke-width="0.5"/>
<path d="M119.75 5.5C119.75 6.19036 119.19 6.75 118.5 6.75C117.81 6.75 117.25 6.19036 117.25 5.5C117.25 4.80964 117.81 4.25 118.5 4.25C119.19 4.25 119.75 4.80964 119.75 5.5Z" stroke="#D15500" stroke-width="0.5"/>
<path d="M127.75 4.5C127.75 5.19036 127.19 5.75 126.5 5.75C125.81 5.75 125.25 5.19036 125.25 4.5C125.25 3.80964 125.81 3.25 126.5 3.25C127.19 3.25 127.75 3.80964 127.75 4.5Z" stroke="#D15500" stroke-width="0.5"/>
<path d="M111.25 2C111.25 2.69036 110.69 3.25 110 3.25C109.31 3.25 108.75 2.69036 108.75 2C108.75 1.30964 109.31 0.75 110 0.75C110.69 0.75 111.25 1.30964 111.25 2Z" stroke="#D15500" stroke-width="0.5"/>
<path d="M116.75 14.5C116.75 15.1904 116.19 15.75 115.5 15.75C114.81 15.75 114.25 15.1904 114.25 14.5C114.25 13.8096 114.81 13.25 115.5 13.25C116.19 13.25 116.75 13.8096 116.75 14.5Z" stroke="#D15500" stroke-width="0.5"/>
<path d="M128.75 14C128.75 14.4142 128.414 14.75 128 14.75C127.586 14.75 127.25 14.4142 127.25 14C127.25 13.5858 127.586 13.25 128 13.25C128.414 13.25 128.75 13.5858 128.75 14Z" stroke="#D15500" stroke-width="0.5"/>
<path d="M119.75 12C119.75 12.4142 119.414 12.75 119 12.75C118.586 12.75 118.25 12.4142 118.25 12C118.25 11.5858 118.586 11.25 119 11.25C119.414 11.25 119.75 11.5858 119.75 12Z" stroke="#D15500" stroke-width="0.5"/>
<path d="M116.25 11.5C116.25 11.9142 115.914 12.25 115.5 12.25C115.086 12.25 114.75 11.9142 114.75 11.5C114.75 11.0858 115.086 10.75 115.5 10.75C115.914 10.75 116.25 11.0858 116.25 11.5Z" stroke="#D15500" stroke-width="0.5"/>
<path d="M141.75 73C141.75 73.4142 141.414 73.75 141 73.75C140.586 73.75 140.25 73.4142 140.25 73C140.25 72.5858 140.586 72.25 141 72.25C141.414 72.25 141.75 72.5858 141.75 73Z" stroke="#D15500" stroke-opacity="0.5" stroke-width="0.5"/>
<path d="M106.25 68.5C106.25 68.9142 105.914 69.25 105.5 69.25C105.086 69.25 104.75 68.9142 104.75 68.5C104.75 68.0858 105.086 67.75 105.5 67.75C105.914 67.75 106.25 68.0858 106.25 68.5Z" stroke="#D15500" stroke-opacity="0.5" stroke-width="0.5"/>
<path d="M93.75 62C93.75 62.6904 93.1904 63.25 92.5 63.25C91.8096 63.25 91.25 62.6904 91.25 62C91.25 61.3096 91.8096 60.75 92.5 60.75C93.1904 60.75 93.75 61.3096 93.75 62Z" stroke="#D15500" stroke-opacity="0.5" stroke-width="0.5"/>
<path d="M103.75 69.5C103.75 70.1904 103.19 70.75 102.5 70.75C101.81 70.75 101.25 70.1904 101.25 69.5C101.25 68.8096 101.81 68.25 102.5 68.25C103.19 68.25 103.75 68.8096 103.75 69.5Z" stroke="#D15500" stroke-opacity="0.5" stroke-width="0.5"/>
<path d="M143.75 75.5C143.75 76.1904 143.19 76.75 142.5 76.75C141.81 76.75 141.25 76.1904 141.25 75.5C141.25 74.8096 141.81 74.25 142.5 74.25C143.19 74.25 143.75 74.8096 143.75 75.5Z" stroke="#D15500" stroke-opacity="0.5" stroke-width="0.5"/>
<path d="M127.25 1.5C127.25 1.91421 126.914 2.25 126.5 2.25C126.086 2.25 125.75 1.91421 125.75 1.5C125.75 1.08579 126.086 0.75 126.5 0.75C126.914 0.75 127.25 1.08579 127.25 1.5Z" stroke="#D15500" stroke-width="0.5"/>
<rect x="44" y="75" width="39" height="4" rx="2" stroke="#D15500" stroke-width="0.5"/>
<rect x="45.25" y="76.25" width="1.5" height="1.5" rx="0.75" stroke="#D15500" stroke-width="0.5"/>
<rect x="80.25" y="76.25" width="1.5" height="1.5" rx="0.75" stroke="#D15500" stroke-width="0.5"/>
<path d="M44.9881 78.7809L45 81M81.9881 78.7809L82 81" stroke="#D15500" stroke-width="0.5"/>
<path d="M62.7637 73.25C62.8306 73.8545 63.1369 74.3868 63.5857 74.75H59C58.1184 74.75 57.389 74.0981 57.2677 73.25H62.7637Z" stroke="#D15500" stroke-width="0.5"/>
<path d="M62.7372 73.4209L62.6802 73.25H62.5H59.25V67C59.25 66.0335 60.0335 65.25 61 65.25H67C67.9665 65.25 68.75 66.0335 68.75 67V67.5257C67.8662 67.1267 66.75 67.7471 66.75 68.8284V73C66.75 73.9665 65.9665 74.75 65 74.75H64.4415C63.6883 74.75 63.0195 74.268 62.7813 73.5534L62.7372 73.4209Z" stroke="#D15500" stroke-width="0.5"/>
<rect x="70" y="69" width="10" height="6" stroke="#D15500" stroke-width="0.5"/>
<path d="M71 69H73V71L72 72L71 71V69Z" stroke="#D15500" stroke-width="0.5"/>
<path d="M53 71H55V73L54 74L53 73V71Z" stroke="#D15500" stroke-width="0.5"/>
<rect x="48" y="71" width="8" height="4" stroke="#D15500" stroke-width="0.5"/>
<rect x="75" y="65" width="4" height="4" stroke="#D15500" stroke-width="0.5"/>
<rect x="69" y="56" width="4" height="4" transform="rotate(30 69 56)" stroke="#D15500" stroke-width="0.5"/>
<rect x="73" y="54.7765" width="3" height="3" transform="rotate(-15 73 54.7765)" stroke="#D15500" stroke-opacity="0.5" stroke-width="0.5"/>
<rect x="72.3862" y="62.7881" width="3" height="3" transform="rotate(60 72.3862 62.7881)" stroke="#D15500" stroke-opacity="0.5" stroke-width="0.5"/>
<path fill-rule="evenodd" clip-rule="evenodd" d="M66.4854 52.1862L66.3015 51.5H65.7839L66.0024 52.3156L66.1318 52.7986L66.6148 52.6692L69.5126 51.8927L69.5895 52.0092C70.0638 52.7276 70.9446 53.0619 71.7761 52.8391L72.3156 52.6945C72.9505 52.5244 73.4318 52.0672 73.6572 51.5H73.1042C72.9131 51.8385 72.5914 52.103 72.1862 52.2116L71.6467 52.3561C71.0231 52.5232 70.3625 52.2725 70.0067 51.7337L69.9298 51.6172L69.8524 51.5H69.0463L66.4854 52.1862ZM72.3427 47H72.8603L72.6501 46.2156C72.4349 45.4124 73.079 44.7212 73.807 44.7374C73.9927 44.7415 74.1838 44.7917 74.3676 44.8978L74.2053 44.2921L74.1087 43.9319C73.8229 42.8649 72.7262 42.2318 71.6593 42.5176L65.8637 44.0706C64.7968 44.3564 64.1636 45.4531 64.4495 46.52L64.5781 47H65.0957L64.9325 46.3906C64.718 45.5904 65.1929 44.7679 65.9931 44.5535L71.7887 43.0006C72.5889 42.7862 73.4114 43.2611 73.6258 44.0613L73.6735 44.2392C72.6962 44.3051 71.8744 45.2523 72.1672 46.345L72.3427 47Z" fill="#D15500"/>
<path d="M69.7026 51.583C69.9236 52.1496 70.3572 52.5845 70.8848 52.8191L66.4553 54.006C65.6038 54.2341 64.7305 53.7932 64.3939 53.0054L69.7026 51.583Z" stroke="#D15500" stroke-width="0.5"/>
<path opacity="0.5" d="M44.25 68.5647V62.4353L49.5038 65.5L44.25 68.5647ZM44.9247 68.75L50 65.7894L55.0753 68.75H44.9247ZM55.75 68.5647L50.4962 65.5L55.75 62.4353V68.5647ZM55.0753 62.25L50 65.2106L44.9247 62.25H55.0753Z" stroke="#D15500" stroke-width="0.5"/>
<path opacity="0.5" d="M-2.75 8.32419V2.67581L-0.329269 5.5L-2.75 8.32419ZM-2.45644 8.75L0 5.88415L2.45644 8.75H-2.45644ZM2.75 8.32419L0.329269 5.5L2.75 2.67581V8.32419ZM2.45644 2.25L0 5.11585L-2.45644 2.25H2.45644Z" stroke="#D15500" stroke-width="0.5"/>
<path opacity="0.5" d="M141.25 8.32419V2.67581L143.671 5.5L141.25 8.32419ZM141.544 8.75L144 5.88415L146.456 8.75H141.544ZM146.75 8.32419L144.329 5.5L146.75 2.67581V8.32419ZM146.456 2.25L144 5.11585L141.544 2.25H146.456Z" stroke="#D15500" stroke-width="0.5"/>
<path d="M86.715 75.0023L86.9595 74.9503L86.9136 74.734L86.6932 74.7532L86.715 75.0023ZM85.5446 75.1046L85.5228 74.8555L85.2957 74.8754L85.2946 75.1033L85.5446 75.1046ZM85.5431 75.4022L85.2931 75.4009L85.2928 75.4479L85.3096 75.4917L85.5431 75.4022ZM86.4644 77.8045L86.6916 77.9089L86.7356 77.8132L86.6979 77.7149L86.4644 77.8045ZM85.6054 79.6727L85.3783 79.5683L85.1985 79.9593L85.6272 79.9218L85.6054 79.6727ZM87.5822 79.5L87.604 79.7491L87.7487 79.7364L87.8094 79.6044L87.5822 79.5ZM88.4413 77.6317L88.6684 77.7362L88.7124 77.6405L88.6747 77.5422L88.4413 77.6317ZM87.8476 76.0839L88.081 75.9944L88.0046 75.795L87.7956 75.8394L87.8476 76.0839ZM86.984 76.2675L86.7395 76.3195L86.7915 76.5641L87.036 76.5121L86.984 76.2675ZM86.6932 74.7532L85.5228 74.8555L85.5663 75.3536L86.7368 75.2513L86.6932 74.7532ZM85.2946 75.1033L85.2931 75.4009L85.7931 75.4035L85.7946 75.1058L85.2946 75.1033ZM85.3096 75.4917L86.231 77.894L86.6979 77.7149L85.7765 75.3127L85.3096 75.4917ZM86.2373 77.7L85.3783 79.5683L85.8325 79.7772L86.6916 77.9089L86.2373 77.7ZM85.6272 79.9218L87.604 79.7491L87.5605 79.2509L85.5836 79.4237L85.6272 79.9218ZM87.8094 79.6044L88.6684 77.7362L88.2141 77.5273L87.3551 79.3956L87.8094 79.6044ZM88.6747 77.5422L88.081 75.9944L87.6142 76.1735L88.2078 77.7212L88.6747 77.5422ZM87.7956 75.8394L86.932 76.023L87.036 76.5121L87.8996 76.3285L87.7956 75.8394ZM87.2285 76.2156L86.9595 74.9503L86.4705 75.0543L86.7395 76.3195L87.2285 76.2156Z" fill="#D15500"/>
<path d="M83.5587 75.3931L83.6198 75.1506L83.3103 75.0727L83.3087 75.3918L83.5587 75.3931ZM83.5315 80.7677L83.2815 80.7664L83.2802 81.0164L83.5302 81.0177L83.5315 80.7677ZM85.5158 80.7777L85.5146 81.0277L85.7645 81.029L85.7658 80.779L85.5158 80.7777ZM85.5453 74.9643L85.7953 74.9656L85.7966 74.7143H85.5453V74.9643ZM84.874 74.9643V74.7143H84.6791L84.6315 74.9033L84.874 74.9643ZM84.694 75.6789L84.633 75.9214L84.8754 75.9824L84.9365 75.74L84.694 75.6789ZM83.3087 75.3918L83.2815 80.7664L83.7815 80.7689L83.8087 75.3943L83.3087 75.3918ZM83.5302 81.0177L85.5146 81.0277L85.5171 80.5277L83.5328 80.5177L83.5302 81.0177ZM85.7658 80.779L85.7953 74.9656L85.2953 74.9631L85.2658 80.7765L85.7658 80.779ZM85.5453 74.7143H84.874V75.2143H85.5453V74.7143ZM84.6315 74.9033L84.4516 75.6179L84.9365 75.74L85.1164 75.0254L84.6315 74.9033ZM84.7551 75.4365L83.6198 75.1506L83.4977 75.6355L84.633 75.9214L84.7551 75.4365Z" fill="#D15500"/>
<path d="M84.1208 70.9956L84.369 70.9663L84.3429 70.7456H84.1208V70.9956ZM83.1365 70.9956V70.7456H82.8865V70.9956H83.1365ZM83.1365 73.2405H82.8865V73.4353L83.0755 73.4829L83.1365 73.2405ZM85.1785 73.7546L85.421 73.8157L85.482 73.5733L85.2396 73.5122L85.1785 73.7546ZM84.874 74.9643L84.6315 74.9033L84.5532 75.2143H84.874V74.9643ZM87.1052 74.9643V75.2143H87.3552V74.9643H87.1052ZM87.1052 70.9956H87.3552V70.7456H87.1052V70.9956ZM85.9045 70.9956V70.7456H85.8898L85.8752 70.7474L85.9045 70.9956ZM84.344 71.1802L84.3146 70.9319L84.3146 70.9319L84.344 71.1802ZM84.1219 71.0051L84.3702 70.9757L84.3702 70.9757L84.1219 71.0051ZM84.1208 70.7456H83.1365V71.2456H84.1208V70.7456ZM82.8865 70.9956V73.2405H83.3865V70.9956H82.8865ZM83.0755 73.4829L85.1175 73.9971L85.2396 73.5122L83.1976 72.998L83.0755 73.4829ZM84.9361 73.6936L84.6315 74.9033L85.1164 75.0254L85.421 73.8157L84.9361 73.6936ZM84.874 75.2143H87.1052V74.7143H84.874V75.2143ZM87.3552 74.9643V70.9956H86.8552V74.9643H87.3552ZM87.1052 70.7456H85.9045V71.2456H87.1052V70.7456ZM85.8752 70.7474L84.3146 70.9319L84.3734 71.4285L85.9339 71.2439L85.8752 70.7474ZM84.3146 70.9319C84.3421 70.9287 84.3669 70.9483 84.3702 70.9757L83.8736 71.0344C83.9028 71.2812 84.1265 71.4576 84.3734 71.4285L84.3146 70.9319ZM84.3702 70.9757L84.369 70.9663L83.8725 71.025L83.8736 71.0344L84.3702 70.9757Z" fill="#D15500"/>
<path d="M81.33 72.7856L85.1785 73.7546L84.694 75.6789L80.8454 74.7099L81.33 72.7856Z" stroke="#D15500" stroke-width="0.5"/>
<path d="M86.984 76.2675L86.7395 76.3195L86.7914 76.5641L87.036 76.5121L86.984 76.2675ZM86.7069 74.9643V74.7143H86.3982L86.4624 75.0163L86.7069 74.9643ZM88.925 75.8549L88.977 76.0994L89.2215 76.0474L89.1695 75.8029L88.925 75.8549ZM88.0997 71.9729L88.3442 71.9209L88.2922 71.6764L88.0477 71.7284L88.0997 71.9729ZM87.1052 72.1844L87.0532 71.9398L86.8552 71.9819V72.1844H87.1052ZM87.1052 74.9643V75.2143H87.3552V74.9643H87.1052ZM87.2285 76.2156L86.9515 74.9124L86.4624 75.0163L86.7395 76.3195L87.2285 76.2156ZM88.873 75.6104L86.932 76.023L87.036 76.5121L88.977 76.0994L88.873 75.6104ZM87.8551 72.0249L88.6804 75.9069L89.1695 75.8029L88.3442 71.9209L87.8551 72.0249ZM87.1572 72.4289L88.1516 72.2175L88.0477 71.7284L87.0532 71.9398L87.1572 72.4289ZM86.8552 72.1844V74.9643H87.3552V72.1844H86.8552ZM87.1052 74.7143H86.7069V75.2143H87.1052V74.7143Z" fill="#D15500"/>
<path d="M83.9358 69.4317C83.9228 69.322 84.0012 69.2225 84.1109 69.2096L85.6843 69.0235C85.794 69.0105 85.8935 69.0889 85.9064 69.1986L86.0925 70.772C86.1055 70.8817 86.0271 70.9811 85.9174 70.9941L84.344 71.1802C84.2343 71.1932 84.1349 71.1148 84.1219 71.0051L83.9358 69.4317Z" stroke="#D15500" stroke-width="0.5"/>
<path d="M107.261 66.981L107.087 68.9734C107.039 69.5235 107.446 70.0086 107.996 70.0567L117.958 70.9283C118.508 70.9764 118.993 70.5694 119.041 70.0192L119.216 68.0268M107.261 66.981L107.436 64.9886L109.602 63.1705L110.599 63.2577M107.261 66.981L109.752 67.1989M110.748 67.286L115.729 67.7218M116.725 67.809L119.216 68.0268M119.216 68.0268L119.39 66.0345L117.572 63.8678L116.576 63.7806M110.599 63.2577L116.576 63.7806M110.599 63.2577V63.2577C110.647 62.7075 111.132 62.3005 111.682 62.3486L115.667 62.6972C116.217 62.7454 116.624 63.2304 116.576 63.7806V63.7806M116.769 67.3109L116.682 68.307C116.658 68.5821 116.415 68.7856 116.14 68.7616V68.7616C115.865 68.7375 115.661 68.495 115.686 68.2199L115.773 67.2237C115.797 66.9486 116.039 66.7451 116.314 66.7692V66.7692C116.589 66.7932 116.793 67.0358 116.769 67.3109ZM110.792 66.7879L110.705 67.7841C110.68 68.0592 110.438 68.2627 110.163 68.2386V68.2386C109.888 68.2146 109.684 67.9721 109.708 67.697L109.796 66.7008C109.82 66.4257 110.062 66.2222 110.337 66.2462V66.2462C110.612 66.2703 110.816 66.5128 110.792 66.7879Z" stroke="#D15500" stroke-width="0.5"/>
<path d="M124.284 65.4815L133.233 67.8793M125.145 69.7267L124.273 71.491L122.781 71.0914L124.726 66.8169L123.234 66.4173L123.807 64.1366L131.265 66.1347L131.335 65.872C131.407 65.6052 131.681 65.4469 131.947 65.5184L132.473 65.6592C132.74 65.7307 132.898 66.0049 132.826 66.2716L132.756 66.5343L134.248 66.934L133.675 69.2147L131.437 68.6153L131.238 69.361L128.628 68.6616M125.145 69.7267L126.963 70.2138C127.424 70.3372 127.907 70.1184 128.118 69.6911L128.628 68.6616M125.145 69.7267L126 67.932L128.628 68.6616" stroke="#D15500" stroke-width="0.5"/>
<g opacity="0.5">
<path d="M107.25 53C107.25 53.3266 107.459 53.6044 107.75 53.7073L107.75 53.75C107.75 54.0261 107.974 54.25 108.25 54.25C108.526 54.25 108.75 54.0261 108.75 53.75L111.75 53.75C111.75 54.0261 111.974 54.25 112.25 54.25C112.526 54.25 112.75 54.0261 112.75 53.75L112.75 53.7073C113.041 53.6044 113.25 53.3266 113.25 53H113V52.75H107.5V53H107.25Z" stroke="#D15500" stroke-width="0.5"/>
<path d="M127 52.75H126.75V53C126.75 53.3266 126.959 53.6044 127.25 53.7073L127.25 53.75C127.25 54.0261 127.474 54.25 127.75 54.25C128.026 54.25 128.25 54.0261 128.25 53.75L131.25 53.75C131.25 54.0261 131.474 54.25 131.75 54.25C132.026 54.25 132.25 54.0261 132.25 53.75L132.25 53.7073C132.541 53.6044 132.75 53.3266 132.75 53H132.5V52.75H127ZM131.5 53.5H128.25H131.5Z" stroke="#D15500" stroke-width="0.5"/>
<path fill-rule="evenodd" clip-rule="evenodd" d="M108.5 74.9297L108.5 81V81.5H109H111.5H112V81V75H111.5V80.5V81H111H109.5H109V80.5V74.9605C108.833 74.9517 108.666 74.9414 108.5 74.9297ZM111.5 59V54.5V54H111H109.5H109V54.5V58.9072C108.832 58.8862 108.666 58.8619 108.5 58.8341V54V53.5H109H111.5H112V54V59H111.5Z" fill="#D15500"/>
<path fill-rule="evenodd" clip-rule="evenodd" d="M128 77.1405V81V81.5H128.5H131H131.5V81V79.8757C131.337 79.7072 131.17 79.5422 131 79.381V80.5V81H130.5H129H128.5V80.5V77.4421C128.335 77.3386 128.169 77.2381 128 77.1405ZM131 60.9408V54.5V54H130.5H129H128.5V54.5V60.1412C128.334 60.0955 128.167 60.0512 128 60.0081V54V53.5H128.5H131H131.5V54V61.1286C131.334 61.0646 131.167 61.002 131 60.9408Z" fill="#D15500"/>
</g>
<rect opacity="0.5" x="90.25" y="78.25" width="16.5" height="1.5" stroke="#D15500" stroke-width="0.5"/>
<path opacity="0.5" d="M49 2.75H25.25V1.25H50.75V17.75H49.25V3V2.75H49Z" stroke="#D15500" stroke-width="0.5"/>
<rect opacity="0.5" x="113.25" y="78.25" width="13.5" height="1.5" stroke="#D15500" stroke-width="0.5"/>
<path d="M47.75 7.39645L44.6036 4.25H47.75V7.39645Z" stroke="#D15500" stroke-opacity="0.5" stroke-width="0.5"/>
</g>
<defs>
<clipPath id="clip0_61_2">
<rect width="144" height="81" fill="white"/>
</clipPath>
</defs>
</svg>
