<svg width="50" height="10" viewBox="0 0 50 10" fill="none" xmlns="http://www.w3.org/2000/svg">
<path fill-rule="evenodd" clip-rule="evenodd" d="M17.8 0.247292V5.54729C17.8 6.26526 17.218 6.84729 16.5 6.84729H15.5C14.782 6.84729 14.2 6.26526 14.2 5.54729V4.54729C14.2 3.82932 14.782 3.24729 15.5 3.24729H17.2V0.247292H17.8ZM17.2 3.84729H15.5C15.1134 3.84729 14.8 4.16069 14.8 4.54729V5.54729C14.8 5.93389 15.1134 6.24729 15.5 6.24729H16.5C16.8866 6.24729 17.2 5.93389 17.2 5.54729V3.84729ZM20 2.74729C20.1657 2.74729 20.3 2.88161 20.3 3.04729V4.04729C20.3 4.21298 20.1657 4.34729 20 4.34729C19.8343 4.34729 19.7 4.21298 19.7 4.04729V3.04729C19.7 2.88161 19.8343 2.74729 20 2.74729ZM10.1897 3.16782L11.1265 5.97808C11.1801 6.13885 11.3305 6.24729 11.5 6.24729C11.6695 6.24729 11.8199 6.13885 11.8735 5.97808L12.8103 3.16782L13.3795 3.35755L12.4427 6.16782C12.3075 6.57359 11.9277 6.84729 11.5 6.84729C11.0723 6.84729 10.6925 6.57359 10.5573 6.16782L9.62052 3.35755L10.1897 3.16782ZM27.8012 3.2485L27.7905 5.92423C27.7887 6.36949 28.4265 6.45733 28.5408 6.02147C28.7977 5.04234 30.1906 5.04571 30.4404 6.02811C30.5506 6.46165 31.1886 6.38311 31.1904 5.93576L31.2012 3.24609L31.8012 3.2485L31.7904 5.93817C31.7858 7.0902 30.1428 7.29248 29.8589 6.17598C29.7621 5.79545 29.2212 5.79256 29.1212 6.17371C28.8294 7.28621 27.1859 7.07729 27.1905 5.92182L27.2012 3.24609L27.8012 3.2485ZM0.699997 4.54729C0.699997 3.82932 1.28203 3.24729 2 3.24729H3C3.71797 3.24729 4.3 3.82932 4.3 4.54729V5.54729C4.3 6.26526 3.71797 6.84729 3 6.84729H1.3V9.84729H0.699997V4.54729ZM1.3 6.24729H3C3.3866 6.24729 3.7 5.93389 3.7 5.54729V4.54729C3.7 4.16069 3.3866 3.84729 3 3.84729H2C1.6134 3.84729 1.3 4.16069 1.3 4.54729V6.24729ZM6.5 3.84729C6.1134 3.84729 5.8 4.16069 5.8 4.54729V6.84729H5.2V4.54729C5.2 3.82932 5.78203 3.24729 6.5 3.24729H8.04729C8.463 3.24729 8.8 3.58429 8.8 4V4.3H8.2V4C8.2 3.91566 8.13163 3.84729 8.04729 3.84729H6.5ZM34 3.84729C33.6134 3.84729 33.3 4.16069 33.3 4.54729V6.84729H32.7V4.54729C32.7 3.82932 33.282 3.24729 34 3.24729H35.5473C35.963 3.24729 36.3 3.58429 36.3 4V4.3H35.7V4C35.7 3.91566 35.6316 3.84729 35.5473 3.84729H34ZM38.5 3.84729C38.1134 3.84729 37.8 4.16069 37.8 4.54729V5.54729C37.8 5.93389 38.1134 6.24729 38.5 6.24729H39.5C39.8866 6.24729 40.2 5.93389 40.2 5.54729V4.54729C40.2 4.16069 39.8866 3.84729 39.5 3.84729H38.5ZM37.2 4.54729C37.2 3.82932 37.782 3.24729 38.5 3.24729H39.5C40.218 3.24729 40.8 3.82932 40.8 4.54729V5.54729C40.8 6.26526 40.218 6.84729 39.5 6.84729H38.5C37.782 6.84729 37.2 6.26526 37.2 5.54729V4.54729ZM43 3.84729C42.6134 3.84729 42.3 4.16069 42.3 4.54729V6.84729H41.7V4.54729C41.7 3.82932 42.282 3.24729 43 3.24729H44C44.718 3.24729 45.3 3.82932 45.3 4.54729V6.84729H44.7V4.54729C44.7 4.16069 44.3866 3.84729 44 3.84729H43ZM47.5 3.84729C47.1134 3.84729 46.8 4.16069 46.8 4.54729V5.54729C46.8 5.93389 47.1134 6.24729 47.5 6.24729H49.2V4.54729C49.2 4.16069 48.8866 3.84729 48.5 3.84729H47.5ZM49.8 4.54729C49.8 3.82932 49.218 3.24729 48.5 3.24729H47.5C46.782 3.24729 46.2 3.82932 46.2 4.54729V5.54729C46.2 6.26526 46.782 6.84729 47.5 6.84729H49.2V8.54729C49.2 8.93389 48.8866 9.24729 48.5 9.24729L47 9.24729C46.8895 9.24729 46.8 9.15775 46.8 9.04729V8.74729H46.2V9.04729C46.2 9.48912 46.5582 9.84729 47 9.84729H48.5C49.218 9.84729 49.8 9.26526 49.8 8.54729V4.54729ZM22.0606 4.13404C21.9479 3.70172 21.3117 3.78196 21.3098 4.22873L21.2987 6.84855L20.6987 6.84602L20.7098 4.22619C20.7146 3.07697 22.3512 2.8706 22.6412 3.98264C22.7398 4.36081 23.2771 4.3638 23.3791 3.98502C23.6774 2.87712 25.3146 3.09062 25.3097 4.24339L25.2987 6.84855L24.6987 6.84602L24.7097 4.24086C24.7116 3.79617 24.0755 3.70635 23.9585 4.141C23.6969 5.11284 22.315 5.1093 22.0606 4.13404Z" fill="#D0E1ED"/>
</svg>
