<svg width="50" height="10" viewBox="0 0 50 10" fill="none" xmlns="http://www.w3.org/2000/svg">
<path fill-rule="evenodd" clip-rule="evenodd" d="M17.1 0V5.3C17.1 6.01797 16.518 6.6 15.8 6.6H14.8C14.082 6.6 13.5 6.01797 13.5 5.3V4.3C13.5 3.58203 14.082 3 14.8 3H16.5V0H17.1ZM16.5 3.6H14.8C14.4134 3.6 14.1 3.9134 14.1 4.3V5.3C14.1 5.6866 14.4134 6 14.8 6H15.8C16.1866 6 16.5 5.6866 16.5 5.3V3.6ZM19.3 2.5C19.4657 2.5 19.6 2.63431 19.6 2.8V3.8C19.6 3.96569 19.4657 4.1 19.3 4.1C19.1343 4.1 19 3.96569 19 3.8V2.8C19 2.63431 19.1343 2.5 19.3 2.5ZM9.48974 2.92053L10.4265 5.73079C10.4801 5.89156 10.6305 6 10.8 6C10.9695 6 11.1199 5.89156 11.1735 5.73079L12.1103 2.92053L12.6795 3.11026L11.7427 5.92053C11.6075 6.3263 11.2277 6.6 10.8 6.6C10.3723 6.6 9.99254 6.3263 9.85728 5.92053L8.92053 3.11026L9.48974 2.92053ZM27.1012 3.0012L27.0905 5.67694C27.0887 6.1222 27.7265 6.21004 27.8409 5.77418C28.0977 4.79505 29.4906 4.79842 29.7404 5.78081C29.8507 6.21436 30.4886 6.13581 30.4904 5.68847L30.5012 2.9988L31.1012 3.0012L31.0904 5.69088C31.0858 6.8429 29.4428 7.04519 29.1589 5.92868C29.0621 5.54816 28.5212 5.54527 28.4212 5.92642C28.1294 7.03892 26.4859 6.83 26.4905 5.67453L26.5012 2.9988L27.1012 3.0012ZM0 4.3C0 3.58203 0.58203 3 1.3 3H2.3C3.01797 3 3.6 3.58203 3.6 4.3V5.3C3.6 6.01797 3.01797 6.6 2.3 6.6H0.6V9.6H0V4.3ZM0.6 6H2.3C2.6866 6 3 5.6866 3 5.3V4.3C3 3.9134 2.6866 3.6 2.3 3.6H1.3C0.913401 3.6 0.6 3.9134 0.6 4.3V6ZM5.8 3.6C5.4134 3.6 5.1 3.9134 5.1 4.3V6.6H4.5V4.3C4.5 3.58203 5.08203 3 5.8 3H7.34729C7.763 3 8.1 3.337 8.1 3.75271V4.05271H7.5V3.75271C7.5 3.66837 7.43163 3.6 7.34729 3.6H5.8ZM33.3 3.6C32.9134 3.6 32.6 3.9134 32.6 4.3V6.6H32V4.3C32 3.58203 32.582 3 33.3 3H34.8473C35.263 3 35.6 3.337 35.6 3.75271V4.05271H35V3.75271C35 3.66837 34.9316 3.6 34.8473 3.6H33.3ZM37.8 3.6C37.4134 3.6 37.1 3.9134 37.1 4.3V5.3C37.1 5.6866 37.4134 6 37.8 6H38.8C39.1866 6 39.5 5.6866 39.5 5.3V4.3C39.5 3.9134 39.1866 3.6 38.8 3.6H37.8ZM36.5 4.3C36.5 3.58203 37.082 3 37.8 3H38.8C39.518 3 40.1 3.58203 40.1 4.3V5.3C40.1 6.01797 39.518 6.6 38.8 6.6H37.8C37.082 6.6 36.5 6.01797 36.5 5.3V4.3ZM42.3 3.6C41.9134 3.6 41.6 3.9134 41.6 4.3V6.6H41V4.3C41 3.58203 41.582 3 42.3 3H43.3C44.018 3 44.6 3.58203 44.6 4.3V6.6H44V4.3C44 3.9134 43.6866 3.6 43.3 3.6H42.3ZM46.8 3.6C46.4134 3.6 46.1 3.9134 46.1 4.3V5.3C46.1 5.6866 46.4134 6 46.8 6H48.5V4.3C48.5 3.9134 48.1866 3.6 47.8 3.6H46.8ZM49.1 4.3C49.1 3.58203 48.518 3 47.8 3H46.8C46.082 3 45.5 3.58203 45.5 4.3V5.3C45.5 6.01797 46.082 6.6 46.8 6.6H48.5V8.3C48.5 8.6866 48.1866 9 47.8 9L46.3 9C46.1895 9 46.1 8.91046 46.1 8.8V8.5H45.5V8.8C45.5 9.24183 45.8582 9.6 46.3 9.6H47.8C48.518 9.6 49.1 9.01797 49.1 8.3V4.3ZM21.3606 3.88675C21.2479 3.45443 20.6117 3.53467 20.6098 3.98143L20.5987 6.60126L19.9987 6.59873L20.0098 3.9789C20.0146 2.82967 21.6512 2.62331 21.9412 3.73535C22.0398 4.11352 22.5771 4.11651 22.6791 3.73773C22.9774 2.62983 24.6146 2.84333 24.6097 3.9961L24.5987 6.60126L23.9987 6.59873L24.0097 3.99357C24.0116 3.54888 23.3755 3.45906 23.2585 3.89371C22.9969 4.86555 21.615 4.86201 21.3606 3.88675Z" fill="#00040A"/>
</svg>
